<svg id="svg" version="1.1" xmlns="http://www.w3.org/2000/svg" viewBox="0 0 188 139" style="display: block;"><path d="M0 0 C62.04 0 124.08 0 188 0 C188 45.87 188 91.74 188 139 C125.96 139 63.92 139 0 139 C0 93.13 0 47.26 0 0 Z " transform="translate(0,0)" style="fill: #F5F5F6;"/><path d="M0 0 C0.99 0.433125 0.99 0.433125 2 0.875 C2.495 2.36 2.495 2.36 3 3.875 C3.969375 4.184375 4.93875 4.49375 5.9375 4.8125 C9 5.875 9 5.875 10.375 8 C10.684375 8.928125 10.684375 8.928125 11 9.875 C12.7325 9.50375 12.7325 9.50375 14.5 9.125 C19.63716782 8.47266123 22.6531636 10.38860958 27 12.875 C28.26259844 13.43559371 29.53321391 13.97861029 30.8125 14.5 C34 15.875 34 15.875 37 17.875 C38.0725 18.101875 39.145 18.32875 40.25 18.5625 C44.952647 20.20842645 48.14853351 22.76680816 51 26.875 C51 28.195 51 29.515 51 30.875 C49.35 30.875 47.7 30.875 46 30.875 C46 30.215 46 29.555 46 28.875 C44.68 28.875 43.36 28.875 42 28.875 C42.33 30.855 42.66 32.835 43 34.875 C40.03 34.38 40.03 34.38 37 33.875 C37 34.535 37 35.195 37 35.875 C38.32 36.535 39.64 37.195 41 37.875 C40.01 38.865 39.02 39.855 38 40.875 C38.99 41.205 39.98 41.535 41 41.875 C40 43.875 40 43.875 37 45.875 C37 46.865 37 47.855 37 48.875 C36.34 48.875 35.68 48.875 35 48.875 C33.67778712 51.597203 32.97984176 53.45167699 33.125 56.5 C34.19003528 59.39081005 35.53761978 60.12750436 38 61.875 C38 62.865 38 63.855 38 64.875 C37.01 64.545 36.02 64.215 35 63.875 C35 63.215 35 62.555 35 61.875 C34.01 62.37 34.01 62.37 33 62.875 C32.34227572 65.90434491 32.34227572 65.90434491 32 68.875 C30.02 68.875 28.04 68.875 26 68.875 C26 70.525 26 72.175 26 73.875 C24.02 73.38 24.02 73.38 22 72.875 C22.33 74.195 22.66 75.515 23 76.875 C21.68 77.205 20.36 77.535 19 77.875 C19 77.215 19 76.555 19 75.875 C16.36 76.865 13.72 77.855 11 78.875 C8 75.875 8 75.875 8 72.875 C7.05125 73.205 6.1025 73.535 5.125 73.875 C-2.41756512 76.01915662 -10.34471327 74.86277893 -18 73.875 C-18.495 75.36 -18.495 75.36 -19 76.875 C-22.08984375 77.71875 -22.08984375 77.71875 -25.9375 78.375 C-29.69653928 78.96033933 -29.69653928 78.96033933 -33 79.875 C-33.66 80.865 -34.32 81.855 -35 82.875 C-38.88372995 83.63651568 -42.59020654 83.86326583 -46.546875 83.9765625 C-54.59976755 84.28380137 -60.41909586 85.04186986 -67 89.875 C-66.22520264 92.86652582 -66.22520264 92.86652582 -65 95.875 C-64.01 96.205 -63.02 96.535 -62 96.875 C-62 97.535 -62 98.195 -62 98.875 C-59.36 98.875 -56.72 98.875 -54 98.875 C-54 101.515 -54 104.155 -54 106.875 C-53.34 106.875 -52.68 106.875 -52 106.875 C-52 104.235 -52 101.595 -52 98.875 C-49.73020335 98.76705723 -47.45894804 98.68943824 -45.1875 98.625 C-43.92292969 98.57859375 -42.65835938 98.5321875 -41.35546875 98.484375 C-38 98.875 -38 98.875 -36.05078125 100.703125 C-35 102.875 -35 102.875 -35 105.875 C-37.64 105.875 -40.28 105.875 -43 105.875 C-42.67 107.195 -42.34 108.515 -42 109.875 C-39.69 110.205 -37.38 110.535 -35 110.875 C-35 111.865 -35 112.855 -35 113.875 C-34.34 114.535 -33.68 115.195 -33 115.875 C-33.66 116.535 -34.32 117.195 -35 117.875 C-35 117.215 -35 116.555 -35 115.875 C-35.99 115.875 -36.98 115.875 -38 115.875 C-38.33 116.535 -38.66 117.195 -39 117.875 C-42.16680795 117.875 -44.91520491 117.59697332 -48 116.875 C-48.66 115.885 -49.32 114.895 -50 113.875 C-50.66 115.195 -51.32 116.515 -52 117.875 C-52.99 117.875 -53.98 117.875 -55 117.875 C-55.33 118.535 -55.66 119.195 -56 119.875 C-56 117.895 -56 115.915 -56 113.875 C-56.66 113.875 -57.32 113.875 -58 113.875 C-58 113.215 -58 112.555 -58 111.875 C-57.34 111.875 -56.68 111.875 -56 111.875 C-56 111.215 -56 110.555 -56 109.875 C-56.99 110.205 -57.98 110.535 -59 110.875 C-59 112.195 -59 113.515 -59 114.875 C-61.90600261 116.13164978 -63.79604584 116.875 -67 116.875 C-67 116.215 -67 115.555 -67 114.875 C-67.94875 114.771875 -68.8975 114.66875 -69.875 114.5625 C-73 113.875 -73 113.875 -75 110.875 C-75 109.885 -75 108.895 -75 107.875 C-75.5534764 109.95053648 -76 111.71865964 -76 113.875 C-78.64 113.875 -81.28 113.875 -84 113.875 C-84.04898438 113.11574219 -84.09796875 112.35648437 -84.1484375 111.57421875 C-84.22320312 110.58035156 -84.29796875 109.58648437 -84.375 108.5625 C-84.44460937 107.57636719 -84.51421875 106.59023437 -84.5859375 105.57421875 C-84.83865472 102.65971567 -84.83865472 102.65971567 -87 99.875 C-87.02694851 101.83325873 -87.04637218 103.79162226 -87.0625 105.75 C-87.07410156 106.84054688 -87.08570313 107.93109375 -87.09765625 109.0546875 C-87.19744303 111.82677546 -87.19744303 111.82677546 -86 113.875 C-89.3 113.875 -92.6 113.875 -96 113.875 C-95.67 107.605 -95.34 101.335 -95 94.875 C-97.97 95.37 -97.97 95.37 -101 95.875 C-101 94.225 -101 92.575 -101 90.875 C-96.05 90.875 -91.1 90.875 -86 90.875 C-86 90.215 -86 89.555 -86 88.875 C-85.05898437 88.54886719 -84.11796875 88.22273438 -83.1484375 87.88671875 C-81.90320313 87.44972656 -80.65796875 87.01273437 -79.375 86.5625 C-77.53035156 85.91861328 -77.53035156 85.91861328 -75.6484375 85.26171875 C-72.29126993 83.98570752 -69.2073434 82.48074095 -66 80.875 C-63.41841987 79.83302443 -60.80491145 78.88523715 -58.1875 77.9375 C-52.96287039 76.01801651 -47.83086144 74.02282832 -42.796875 71.63671875 C-40.88892646 70.82791448 -39.01216744 70.35722274 -37 69.875 C-38.82204956 69.88285522 -38.82204956 69.88285522 -40.6809082 69.89086914 C-45.23396046 69.90911653 -49.78700955 69.92050342 -54.34008789 69.92993164 C-56.3020075 69.93492708 -58.26392346 69.94172571 -60.22583008 69.95043945 C-81.14939522 70.04097155 -81.14939522 70.04097155 -90 68.875 C-93 61.125 -93 61.125 -93 58.875 C-93.66 58.875 -94.32 58.875 -95 58.875 C-95 57.885 -95 56.895 -95 55.875 C-93.68 55.875 -92.36 55.875 -91 55.875 C-91.0825 54.988125 -91.165 54.10125 -91.25 53.1875 C-90.94588989 49.15804099 -89.53530723 47.90101185 -87 44.875 C-87.495 43.39 -87.495 43.39 -88 41.875 C-87.67 40.885 -87.34 39.895 -87 38.875 C-86.96125079 37.20878384 -86.9549714 35.54105828 -87 33.875 C-86.01 33.38 -86.01 33.38 -85 32.875 C-84.731875 31.740625 -84.46375 30.60625 -84.1875 29.4375 C-83 25.875 -83 25.875 -80.875 24.4375 C-77.15829648 23.71031888 -73.78617191 23.74665519 -70 23.875 C-70 23.215 -70 22.555 -70 21.875 C-67.09399739 20.61835022 -65.20395416 19.875 -62 19.875 C-61.91234375 19.29234375 -61.8246875 18.7096875 -61.734375 18.109375 C-60.80129566 15.27043147 -59.48300992 14.08937714 -57.25 12.125 C-56.57453125 11.51140625 -55.8990625 10.8978125 -55.203125 10.265625 C-52.52654848 8.57615471 -51.111673 8.41252195 -48 8.875 C-47.030625 9.7 -46.06125 10.525 -45.0625 11.375 C-42.21847291 14.17148485 -42.21847291 14.17148485 -38.625 14.1875 C-37.75875 14.084375 -36.8925 13.98125 -36 13.875 C-36 14.865 -36 15.855 -36 16.875 C-35.21625 16.730625 -34.4325 16.58625 -33.625 16.4375 C-30.70153608 15.98385905 -27.88140952 15.71562267 -24.9375 15.5 C-20.81094711 15.12429892 -18.52419965 14.0657187 -15 11.875 C-11.13216874 11.60357324 -7.70479057 11.68946702 -4 12.875 C-4 12.215 -4 11.555 -4 10.875 C-4.598125 10.730625 -5.19625 10.58625 -5.8125 10.4375 C-7.56150404 9.9877561 -9.28677023 9.44607659 -11 8.875 C-11 5.875 -11 5.875 -9.42578125 4.234375 C-3.66506856 -0.15271119 -3.66506856 -0.15271119 0 0 Z " transform="translate(106,16.125)" style="fill: #D5C9BB;"/><path d="M0 0 C3.71599191 -0.20086443 4.77208445 -0.1519437 8 2 C8 2.66 8 3.32 8 4 C8.66 4 9.32 4 10 4 C10.33 2.68 10.66 1.36 11 0 C11.53625 0.185625 12.0725 0.37125 12.625 0.5625 C15.63073689 1.11618837 18.00980167 0.56066219 21 0 C22.32 0 23.64 0 25 0 C25.495 1.485 25.495 1.485 26 3 C28.97 3.495 28.97 3.495 32 4 C32 3.34 32 2.68 32 2 C34.31 2 36.62 2 39 2 C39.495 5.96 39.495 5.96 40 10 C40.969375 10.309375 41.93875 10.61875 42.9375 10.9375 C46 12 46 12 47 13 C47.36760731 15.32817964 47.70241581 17.6618385 48 20 C48.66 20 49.32 20 50 20 C50.0928125 18.63875 50.0928125 18.63875 50.1875 17.25 C51.20757239 13.16971043 52.50061724 12.22687994 56 10 C58.8125 8.75 58.8125 8.75 61 8 C62.98 9.98 62.98 9.98 65 12 C65 11.01 65 10.02 65 9 C70.94 9.99 70.94 9.99 77 11 C77 11.66 77 12.32 77 13 C77.66 13 78.32 13 79 13 C79 12.34 79 11.68 79 11 C79.969375 10.87625 80.93875 10.7525 81.9375 10.625 C82.948125 10.41875 83.95875 10.2125 85 10 C85.33 9.34 85.66 8.68 86 8 C88 8.66666667 90 9.33333333 92 10 C93.66362417 10.34820041 95.32995171 10.68404492 97 11 C97.33 12.65 97.66 14.3 98 16 C98.12375 15.21625 98.2475 14.4325 98.375 13.625 C100 11 100 11 102.25390625 10.22265625 C105.87907134 9.49973395 109.29942862 9 113 9 C113 17.58 113 26.16 113 35 C50.96 35 -11.08 35 -75 35 C-75 28.25932045 -74.84284442 22.53204428 -74 16 C-72.68 15.67 -71.36 15.34 -70 15 C-70.680625 13.9275 -71.36125 12.855 -72.0625 11.75 C-74.03471002 8.33842267 -74.03471002 8.33842267 -73.75 5.5625 C-73.5025 5.046875 -73.255 4.53125 -73 4 C-72.01 4 -71.02 4 -70 4 C-69.67 4.99 -69.34 5.98 -69 7 C-67.35 7 -65.7 7 -64 7 C-63.97309896 9.79173055 -63.95320947 12.58320348 -63.9375 15.375 C-63.92912109 16.1690625 -63.92074219 16.963125 -63.91210938 17.78125 C-63.88671875 23.7734375 -63.88671875 23.7734375 -65 26 C-62.03 25.67 -59.06 25.34 -56 25 C-56.33 24.67 -56.66 24.34 -57 24 C-57.07244053 21.98035801 -57.08377188 19.95832876 -57.0625 17.9375 C-57.05347656 16.83277344 -57.04445313 15.72804688 -57.03515625 14.58984375 C-57.02355469 13.73519531 -57.01195313 12.88054687 -57 12 C-56.34 11.67 -55.68 11.34 -55 11 C-52.97441119 14.34939881 -52.78261013 16.86962551 -52.875 20.75 C-52.89304687 21.73484375 -52.91109375 22.7196875 -52.9296875 23.734375 C-52.95289062 24.48203125 -52.97609375 25.2296875 -53 26 C-50.36 26 -47.72 26 -45 26 C-45.33 25.34 -45.66 24.68 -46 24 C-46.039992 22.00039988 -46.04346799 19.99952758 -46 18 C-45.01 18 -44.02 18 -43 18 C-42.31292445 20.49064888 -42 22.37886292 -42 25 C-37.55621385 27.36720726 -37.55621385 27.36720726 -32.75 27.6875 C-32.1725 27.460625 -31.595 27.23375 -31 27 C-30.01 27 -29.02 27 -28 27 C-28.33 25.35 -28.66 23.7 -29 22 C-27.68 22 -26.36 22 -25 22 C-25 22.66 -25 23.32 -25 24 C-25.66 24 -26.32 24 -27 24 C-27 24.66 -27 25.32 -27 26 C-26.34 26 -25.68 26 -25 26 C-24.505 27.98 -24.505 27.98 -24 30 C-23.34 30 -22.68 30 -22 30 C-20.88214887 27.88214887 -20.88214887 27.88214887 -20 25 C-19.34 24.34 -18.68 23.68 -18 23 C-17.6596875 24.2065625 -17.6596875 24.2065625 -17.3125 25.4375 C-16.25795178 28.20957326 -16.25795178 28.20957326 -13.625 28.875 C-11.09182535 28.99562736 -9.40860028 28.69927105 -7 28 C-5.68 28 -4.36 28 -3 28 C-3.99 27.34 -4.98 26.68 -6 26 C-5.34 26 -4.68 26 -4 26 C-4 25.01 -4 24.02 -4 23 C-6.31 23 -8.62 23 -11 23 C-11.33 21.35 -11.66 19.7 -12 18 C-9.36 18 -6.72 18 -4 18 C-4.99 15.69 -5.98 13.38 -7 11 C-4.03 11.495 -4.03 11.495 -1 12 C-1.33 8.7 -1.66 5.4 -2 2 C-1.34 2 -0.68 2 0 2 C0 1.34 0 0.68 0 0 Z " transform="translate(75,104)" style="fill: #F4F7F6;"/><path d="M0 0 C-0.40158033 2.8913784 -0.74403411 4.67236367 -2.5625 7 C-4.35152855 9.48908319 -4.24978605 11.00256744 -4 14 C-5.32 14.33 -6.64 14.66 -8 15 C-8 14.34 -8 13.68 -8 13 C-10.64 13.99 -13.28 14.98 -16 16 C-19 13 -19 13 -19 10 C-19.94875 10.33 -20.8975 10.66 -21.875 11 C-29.41756512 13.14415662 -37.34471327 11.98777893 -45 11 C-45.33 11.99 -45.66 12.98 -46 14 C-49.08984375 14.84375 -49.08984375 14.84375 -52.9375 15.5 C-56.69653928 16.08533933 -56.69653928 16.08533933 -60 17 C-60.99 18.485 -60.99 18.485 -62 20 C-65.88372995 20.76151568 -69.59020654 20.98826583 -73.546875 21.1015625 C-81.59976755 21.40880137 -87.41909586 22.16686986 -94 27 C-93.22520264 29.99152582 -93.22520264 29.99152582 -92 33 C-91.01 33.33 -90.02 33.66 -89 34 C-89 34.66 -89 35.32 -89 36 C-86.36 36 -83.72 36 -81 36 C-81 38.64 -81 41.28 -81 44 C-80.34 44 -79.68 44 -79 44 C-79 41.36 -79 38.72 -79 36 C-76.73020335 35.89205723 -74.45894804 35.81443824 -72.1875 35.75 C-70.29064453 35.68039063 -70.29064453 35.68039063 -68.35546875 35.609375 C-65 36 -65 36 -63.05078125 37.828125 C-62 40 -62 40 -62 43 C-64.64 43 -67.28 43 -70 43 C-69.505 44.98 -69.505 44.98 -69 47 C-66.69 47.33 -64.38 47.66 -62 48 C-62 48.99 -62 49.98 -62 51 C-61.34 51.66 -60.68 52.32 -60 53 C-60.99 53.99 -60.99 53.99 -62 55 C-62 54.34 -62 53.68 -62 53 C-62.99 53 -63.98 53 -65 53 C-65.495 53.99 -65.495 53.99 -66 55 C-69.16680795 55 -71.91520491 54.72197332 -75 54 C-75.66 53.01 -76.32 52.02 -77 51 C-77.66 52.32 -78.32 53.64 -79 55 C-79.99 55 -80.98 55 -82 55 C-82.495 55.99 -82.495 55.99 -83 57 C-83 55.02 -83 53.04 -83 51 C-83.66 51 -84.32 51 -85 51 C-85 50.34 -85 49.68 -85 49 C-84.34 49 -83.68 49 -83 49 C-83 48.34 -83 47.68 -83 47 C-83.99 47.33 -84.98 47.66 -86 48 C-86 49.32 -86 50.64 -86 52 C-88.90600261 53.25664978 -90.79604584 54 -94 54 C-94 53.34 -94 52.68 -94 52 C-95.423125 51.8453125 -95.423125 51.8453125 -96.875 51.6875 C-100 51 -100 51 -102 48 C-102 47.01 -102 46.02 -102 45 C-102.5534764 47.07553648 -103 48.84365964 -103 51 C-105.64 51 -108.28 51 -111 51 C-111.04898438 50.24074219 -111.09796875 49.48148438 -111.1484375 48.69921875 C-111.22320312 47.70535156 -111.29796875 46.71148437 -111.375 45.6875 C-111.44460937 44.70136719 -111.51421875 43.71523437 -111.5859375 42.69921875 C-111.83865472 39.78471567 -111.83865472 39.78471567 -114 37 C-114.02694851 38.95825873 -114.04637218 40.91662226 -114.0625 42.875 C-114.07410156 43.96554688 -114.08570313 45.05609375 -114.09765625 46.1796875 C-114.19744303 48.95177546 -114.19744303 48.95177546 -113 51 C-116.3 51 -119.6 51 -123 51 C-122.67 44.73 -122.34 38.46 -122 32 C-124.97 32.495 -124.97 32.495 -128 33 C-128 31.35 -128 29.7 -128 28 C-123.05 28 -118.1 28 -113 28 C-113 27.34 -113 26.68 -113 26 C-111.58847656 25.51080078 -111.58847656 25.51080078 -110.1484375 25.01171875 C-108.90320313 24.57472656 -107.65796875 24.13773438 -106.375 23.6875 C-105.14523438 23.25824219 -103.91546875 22.82898438 -102.6484375 22.38671875 C-99.29126993 21.11070752 -96.2073434 19.60574095 -93 18 C-90.41842594 16.95802688 -87.80501634 16.00993692 -85.1875 15.0625 C-80.69005996 13.41526834 -76.27205806 11.73520502 -71.9375 9.6875 C-68.30531696 8.01216416 -64.9821392 7.4977674 -61 7 C-58.82626905 6.34871038 -56.69533054 5.60592431 -54.55297852 4.85839844 C-46.16212921 2.03710876 -37.84398387 0.34995097 -29.0625 -0.6875 C-28.06798828 -0.81705078 -27.07347656 -0.94660156 -26.04882812 -1.08007812 C-7.35027445 -3.37043888 -7.35027445 -3.37043888 0 0 Z " transform="translate(133,79)" style="fill: #F2F8F5;"/><path d="M0 0 C0.66 0.28875 1.32 0.5775 2 0.875 C2.495 2.36 2.495 2.36 3 3.875 C3.969375 4.184375 4.93875 4.49375 5.9375 4.8125 C9 5.875 9 5.875 10.375 8 C10.58125 8.61875 10.7875 9.2375 11 9.875 C12.7325 9.50375 12.7325 9.50375 14.5 9.125 C19.63716782 8.47266123 22.6531636 10.38860958 27 12.875 C28.26259844 13.43559371 29.53321391 13.97861029 30.8125 14.5 C34 15.875 34 15.875 37 17.875 C38.0725 18.101875 39.145 18.32875 40.25 18.5625 C44.952647 20.20842645 48.14853351 22.76680816 51 26.875 C51 28.195 51 29.515 51 30.875 C49.35 30.875 47.7 30.875 46 30.875 C46 30.215 46 29.555 46 28.875 C44.68 28.875 43.36 28.875 42 28.875 C42.495 31.845 42.495 31.845 43 34.875 C41.02 34.545 39.04 34.215 37 33.875 C37 34.535 37 35.195 37 35.875 C38.32 36.535 39.64 37.195 41 37.875 C40.01 38.865 39.02 39.855 38 40.875 C39.485 41.37 39.485 41.37 41 41.875 C40 43.875 40 43.875 37 45.875 C37 46.865 37 47.855 37 48.875 C36.34 48.875 35.68 48.875 35 48.875 C34.62875 50.0815625 34.62875 50.0815625 34.25 51.3125 C33 53.875 33 53.875 30.875 54.6875 C29.946875 54.7803125 29.946875 54.7803125 29 54.875 C28.62875 54.070625 28.2575 53.26625 27.875 52.4375 C24.0045855 44.75092915 18.80728049 38.18053828 13 31.875 C12.7525 32.82375 12.505 33.7725 12.25 34.75 C11 37.875 11 37.875 9.0625 39.25 C7 39.875 7 39.875 4 39.875 C3.82984375 39.10414062 3.6596875 38.33328125 3.484375 37.5390625 C3.24203125 36.53617188 2.9996875 35.53328125 2.75 34.5 C2.40195313 33.00339844 2.40195313 33.00339844 2.046875 31.4765625 C1.25716114 28.7617779 1.25716114 28.7617779 -0.96484375 27.6875 C-1.63644531 27.419375 -2.30804688 27.15125 -3 26.875 C-3.763125 26.00875 -4.52625 25.1425 -5.3125 24.25 C-7.84736931 21.55985445 -7.84736931 21.55985445 -11.5 21.4375 C-14.71048591 21.83881074 -17.10438607 22.47106597 -20 23.875 C-20 24.535 -20 25.195 -20 25.875 C-21.3269043 27.1081543 -21.3269043 27.1081543 -23.13671875 28.51171875 C-27.09910043 31.79557624 -29.89895184 35.47538877 -32.8125 39.6875 C-37.76477024 46.75738512 -37.76477024 46.75738512 -40 47.875 C-38.17708333 43.1875 -38.17708333 43.1875 -36.9375 41 C-35.81430344 38.74192623 -35.81430344 38.74192623 -35.625 35.5 C-34.49484483 28.94510001 -30.16141954 24.76090542 -25.5625 20.1875 C-24.63566406 19.25550781 -23.70882812 18.32351562 -22.75390625 17.36328125 C-19.01502661 13.98503113 -16.51712476 11.9814649 -11.4375 11.625 C-8.77938645 11.81831735 -6.52194469 12.0679777 -4 12.875 C-4 12.215 -4 11.555 -4 10.875 C-4.598125 10.730625 -5.19625 10.58625 -5.8125 10.4375 C-7.56150404 9.9877561 -9.28677023 9.44607659 -11 8.875 C-11 5.875 -11 5.875 -9.42578125 4.234375 C-3.66506856 -0.15271119 -3.66506856 -0.15271119 0 0 Z " transform="translate(106,16.125)" style="fill: #D4C7B8;"/><path d="M0 0 C-0.57634139 4.75481646 -2.55068521 7.97048212 -5 12 C-8.14496297 12.14976014 -10.52415333 12.1919951 -13.46875 11.00390625 C-18.60615507 9.54338291 -23.56257048 9.75102853 -28.875 9.8125 C-30.45087891 9.8134668 -30.45087891 9.8134668 -32.05859375 9.81445312 C-37.79404395 9.84675541 -43.32796292 10.14577755 -49 11 C-49 11.66 -49 12.32 -49 13 C-50.6396875 13.2165625 -50.6396875 13.2165625 -52.3125 13.4375 C-55.93122987 13.88288104 -55.93122987 13.88288104 -59 15 C-59 14.34 -59 13.68 -59 13 C-60.19238281 13.28875 -61.38476562 13.5775 -62.61328125 13.875 C-64.17964512 14.25017698 -65.74605372 14.62516726 -67.3125 15 C-68.09818359 15.19078125 -68.88386719 15.3815625 -69.69335938 15.578125 C-70.8293457 15.84882812 -70.8293457 15.84882812 -71.98828125 16.125 C-72.68477783 16.29257813 -73.38127441 16.46015625 -74.09887695 16.6328125 C-76 17 -76 17 -79 17 C-79 17.66 -79 18.32 -79 19 C-79.53625 19.15855469 -80.0725 19.31710938 -80.625 19.48046875 C-84.79120384 20.72073667 -88.94898869 21.97762917 -93.0859375 23.3125 C-93.79363281 23.5391333 -94.50132813 23.7657666 -95.23046875 23.99926758 C-96.64344768 24.452727 -98.05495866 24.91079016 -99.46484375 25.3737793 C-102.85286409 26.45657005 -105.40063014 27 -109 27 C-109 26.34 -109 25.68 -109 25 C-106.1433061 23.80971087 -103.28658026 22.61949931 -100.4296875 21.4296875 C-98.24677173 20.51972489 -96.06441673 19.60841502 -93.8828125 18.6953125 C-88.35485722 16.38362211 -82.81590765 14.10937171 -77.2421875 11.91015625 C-75.23652051 11.0960092 -73.27847404 10.21684806 -71.3125 9.3125 C-67.81088629 7.92506815 -64.7214143 7.51329852 -61 7 C-58.82700867 6.34727637 -56.695571 5.60601005 -54.5534668 4.85864258 C-46.16252865 2.03706026 -37.84414536 0.34997005 -29.0625 -0.6875 C-28.06798828 -0.81705078 -27.07347656 -0.94660156 -26.04882812 -1.08007812 C-7.35027445 -3.37043888 -7.35027445 -3.37043888 0 0 Z " transform="translate(133,79)" style="fill: #0D6438;"/><path d="M0 0 C3.6235715 1.88425718 6.04262526 3.93197805 8.5 7.125 C10.68840128 10.18516165 10.68840128 10.18516165 13.671875 10.70703125 C18.46561161 12.56938667 21.26123989 15.87154259 24.75 19.5625 C26.07608737 20.94076547 27.40411897 22.31716379 28.734375 23.69140625 C29.60400879 24.60708374 29.60400879 24.60708374 30.49121094 25.54125977 C31.95507994 27.10261708 31.95507994 27.10261708 34 28 C34 28.66 34 29.32 34 30 C36.65228812 31.07525194 39.28368454 32.09456151 42 33 C42.6875 35.75 42.6875 35.75 43 39 C41.5625 41.375 41.5625 41.375 40 43 C38.125 42.8125 38.125 42.8125 36 42 C35.30075952 40.34673506 34.63873047 38.67757134 34 37 C30.37445232 30.74789456 25.88314249 25.30211033 21 20 C20.7525 20.94875 20.505 21.8975 20.25 22.875 C19 26 19 26 17.0625 27.375 C15 28 15 28 12 28 C11.82984375 27.22914062 11.6596875 26.45828125 11.484375 25.6640625 C11.24203125 24.66117188 10.9996875 23.65828125 10.75 22.625 C10.40195313 21.12839844 10.40195313 21.12839844 10.046875 19.6015625 C9.25716114 16.8867779 9.25716114 16.8867779 7.03515625 15.8125 C6.36355469 15.544375 5.69195312 15.27625 5 15 C4.236875 14.13375 3.47375 13.2675 2.6875 12.375 C0.15263069 9.68485445 0.15263069 9.68485445 -3.5 9.5625 C-6.71048591 9.96381074 -9.10438607 10.59606597 -12 12 C-12 12.66 -12 13.32 -12 14 C-13.3269043 15.2331543 -13.3269043 15.2331543 -15.13671875 16.63671875 C-19.09910043 19.92057624 -21.89895184 23.60038877 -24.8125 27.8125 C-29.76477024 34.88238512 -29.76477024 34.88238512 -32 36 C-30.17708333 31.3125 -30.17708333 31.3125 -28.9375 29.125 C-27.81430344 26.86692623 -27.81430344 26.86692623 -27.625 23.625 C-26.49484483 17.07010001 -22.16141954 12.88590542 -17.5625 8.3125 C-16.63566406 7.38050781 -15.70882812 6.44851562 -14.75390625 5.48828125 C-9.90900862 1.11069289 -6.64156073 -0.81563026 0 0 Z " transform="translate(98,28)" style="fill: #402F17;"/><path d="M0 0 C1.32 0.33 2.64 0.66 4 1 C4 1.66 4 2.32 4 3 C6.64 3 9.28 3 12 3 C12 5.64 12 8.28 12 11 C12.66 11 13.32 11 14 11 C14 8.36 14 5.72 14 3 C16.26979665 2.89205723 18.54105196 2.81443824 20.8125 2.75 C22.70935547 2.68039063 22.70935547 2.68039063 24.64453125 2.609375 C28 3 28 3 29.94921875 4.828125 C31 7 31 7 31 10 C28.36 10 25.72 10 23 10 C23.33 11.32 23.66 12.64 24 14 C26.31 14.33 28.62 14.66 31 15 C31 15.99 31 16.98 31 18 C31.66 18.66 32.32 19.32 33 20 C32.34 20.66 31.68 21.32 31 22 C31 21.34 31 20.68 31 20 C30.01 20 29.02 20 28 20 C27.67 20.66 27.34 21.32 27 22 C23.83319205 22 21.08479509 21.72197332 18 21 C17.34 20.01 16.68 19.02 16 18 C15.34 19.32 14.68 20.64 14 22 C13.01 22 12.02 22 11 22 C10.67 22.66 10.34 23.32 10 24 C10 22.02 10 20.04 10 18 C9.34 18 8.68 18 8 18 C8 17.34 8 16.68 8 16 C8.66 16 9.32 16 10 16 C10 15.34 10 14.68 10 14 C9.01 14.33 8.02 14.66 7 15 C7 16.32 7 17.64 7 19 C4.09399739 20.25664978 2.20395416 21 -1 21 C-1 20.34 -1 19.68 -1 19 C-2.32 19 -3.64 19 -5 19 C-6.39431504 16.21136993 -6.25660094 14.07921132 -6 11 C-3 9 -3 9 0 9 C0 7.68 0 6.36 0 5 C-0.99 5 -1.98 5 -3 5 C-3.33 5.99 -3.66 6.98 -4 8 C-4.66 8 -5.32 8 -6 8 C-5.8125 6.125 -5.8125 6.125 -5 4 C-2.4375 2.75 -2.4375 2.75 0 2 C0 1.34 0 0.68 0 0 Z " transform="translate(40,112)" style="fill: #DCF5EB;"/><path d="M0 0 C2.31 0.33 4.62 0.66 7 1 C7 1.33 7 1.66 7 2 C9.475 2.495 9.475 2.495 12 3 C12.16759984 5.1249266 12.33405201 7.24994376 12.5 9.375 C12.5928125 10.55835937 12.685625 11.74171875 12.78125 12.9609375 C12.90195454 14.63786843 13 16.31873056 13 18 C10.69 18 8.38 18 6 18 C6 14.37 6 10.74 6 7 C4.02 7.33 2.04 7.66 0 8 C0.33 11.3 0.66 14.6 1 18 C-1.31 18 -3.62 18 -6 18 C-6 16.68 -6 15.36 -6 14 C-6.33 14.66 -6.66 15.32 -7 16 C-10.2982219 18.1988146 -13.09595417 18.41532402 -17 18 C-19.27998857 16.74207527 -19.81658106 15.62601683 -20.5390625 13.16015625 C-21.20716701 9.64278249 -21.38011676 7.69112138 -19.625 4.5 C-15.79733903 2.31276516 -12.30936606 2.6685103 -8 3 C-8 3.66 -8 4.32 -8 5 C-7.34 5 -6.68 5 -6 5 C-6 4.34 -6 3.68 -6 3 C-4.02 2.67 -2.04 2.34 0 2 C0 1.34 0 0.68 0 0 Z M15 3 C18.3 3 21.6 3 25 3 C24.19595286 6.21618856 23.29662577 8.76869185 21.9375 11.75 C21.39416016 12.94882813 21.39416016 12.94882813 20.83984375 14.171875 C20.56269531 14.77515625 20.28554687 15.3784375 20 16 C22.86724686 15.42655063 23.8614515 15.1385485 26 13 C26 14.65 26 16.3 26 18 C22.37 18 18.74 18 15 18 C16.41292095 13.1725201 18.42974154 9.2837641 21 5 C19.68 5 18.36 5 17 5 C16.67 6.32 16.34 7.64 16 9 C15.01 9 14.02 9 13 9 C13.66 7.02 14.32 5.04 15 3 Z " transform="translate(160,112)" style="fill: #BBDDCD;"/><path d="M0 0 C3.71599191 -0.20086443 4.77208445 -0.1519437 8 2 C8 2.66 8 3.32 8 4 C8.66 4 9.32 4 10 4 C10.33 2.68 10.66 1.36 11 0 C11.53625 0.185625 12.0725 0.37125 12.625 0.5625 C15.63073689 1.11618837 18.00980167 0.56066219 21 0 C22.32 0 23.64 0 25 0 C25.33 0.99 25.66 1.98 26 3 C27.32 3 28.64 3 30 3 C30.495 6.465 30.495 6.465 31 10 C30.5875 9.525625 30.175 9.05125 29.75 8.5625 C27.86673565 6.63715751 27.86673565 6.63715751 24 6 C24.33 12.6 24.66 19.2 25 26 C22.69 26 20.38 26 18 26 C16.82428549 22.32589215 16.92633254 18.83070817 17 15 C14.9254644 13.7763932 14.9254644 13.7763932 12 14 C11.34 14 10.68 14 10 14 C10 13.01 10 12.02 10 11 C9.01 11 8.02 11 7 11 C5.53329887 16.22512279 4.77422598 20.5814234 5 26 C2.69 26 0.38 26 -2 26 C-2 18.08 -2 10.16 -2 2 C-1.34 2 -0.68 2 0 2 C0 1.34 0 0.68 0 0 Z " transform="translate(75,104)" style="fill: #EFF9F4;"/><path d="M0 0 C1.5625 1.8125 1.5625 1.8125 3 4 C2.67 4.99 2.34 5.98 2 7 C2.66 7.33 3.32 7.66 4 8 C4 9.32 4 10.64 4 12 C5.98 11.67 7.96 11.34 10 11 C10 11.99 10 12.98 10 14 C8.35 14 6.7 14 5 14 C5 17.3 5 20.6 5 24 C5.66 24 6.32 24 7 24 C7 24.66 7 25.32 7 26 C4.36 26 1.72 26 -1 26 C-1.07347656 24.86111328 -1.07347656 24.86111328 -1.1484375 23.69921875 C-1.22320313 22.70535156 -1.29796875 21.71148437 -1.375 20.6875 C-1.44460937 19.70136719 -1.51421875 18.71523437 -1.5859375 17.69921875 C-1.83865472 14.78471567 -1.83865472 14.78471567 -4 12 C-4.02694851 13.95825873 -4.04637218 15.91662226 -4.0625 17.875 C-4.07410156 18.96554688 -4.08570313 20.05609375 -4.09765625 21.1796875 C-4.19744303 23.95177546 -4.19744303 23.95177546 -3 26 C-6.3 26 -9.6 26 -13 26 C-12.67 19.73 -12.34 13.46 -12 7 C-13.98 7.33 -15.96 7.66 -18 8 C-18 6.35 -18 4.7 -18 3 C-13.05 3 -8.1 3 -3 3 C-3 2.34 -3 1.68 -3 1 C-2.01 0.67 -1.02 0.34 0 0 Z " transform="translate(23,104)" style="fill: #D1EDE0;"/><path d="M0 0 C-0.53163039 3.82773878 -1.090591 6.37214671 -4 9 C-7.09488294 9.5132793 -10.13772737 9.32258707 -13.26171875 9.171875 C-14.62040825 9.13009125 -14.62040825 9.13009125 -16.00654602 9.08746338 C-18.90121826 8.99405012 -21.79392144 8.87237541 -24.6875 8.75 C-26.64902459 8.68173086 -28.61061415 8.61530172 -30.57226562 8.55078125 C-35.38252461 8.38853359 -40.19120787 8.20093238 -45 8 C-41.26757812 3.08837891 -41.26757812 3.08837891 -38.859375 2.29296875 C-38.16328125 2.25816406 -37.4671875 2.22335938 -36.75 2.1875 C-35.5125 2.125625 -34.275 2.06375 -33 2 C-33 1.34 -33 0.68 -33 0 C-7.86726804 -3.57216495 -7.86726804 -3.57216495 0 0 Z " transform="translate(133,79)" style="fill: #066839;"/><path d="M0 0 C1.32 0 2.64 0 4 0 C4.33 3.3 4.66 6.6 5 10 C5.66 9.34 6.32 8.68 7 8 C11.55555556 8.55555556 11.55555556 8.55555556 13 10 C13.36760731 12.32817964 13.70241581 14.6618385 14 17 C14.66 17 15.32 17 16 17 C16.103125 16.071875 16.20625 15.14375 16.3125 14.1875 C17 11 17 11 18.125 9.0625 C21.13768486 7.35531191 23.7310945 8.32154791 27 9 C27.33 10.98 27.66 12.96 28 15 C25.36 15 22.72 15 20 15 C20.33 16.32 20.66 17.64 21 19 C23.31 19 25.62 19 28 19 C27 22 27 22 25 23 C20.94857881 23.25860135 19.45662331 23.30441554 16 21 C16 21.66 16 22.32 16 23 C13.36 23 10.72 23 8 23 C8 20.69 8 18.38 8 16 C7.01 16 6.02 16 5 16 C5.33 18.31 5.66 20.62 6 23 C3.69 23 1.38 23 -1 23 C-1 22.34 -1 21.68 -1 21 C-0.34 21 0.32 21 1 21 C0.67 14.07 0.34 7.14 0 0 Z " transform="translate(109,107)" style="fill: #B2D5C6;"/><path d="M0 0 C2.31 0 4.62 0 7 0 C8 7.625 8 7.625 8 11 C7.01 11.495 7.01 11.495 6 12 C6 8.37 6 4.74 6 1 C5.01 1.33 4.02 1.66 3 2 C3 8.6 3 15.2 3 22 C2.34 22 1.68 22 1 22 C1 22.66 1 23.32 1 24 C3.31 24 5.62 24 8 24 C7.67 21.69 7.34 19.38 7 17 C7.99 17 8.98 17 10 17 C10 19.31 10 21.62 10 24 C11.98 24 13.96 24 16 24 C12.75900504 26.16066331 11.23720241 26.37886905 7.4375 26.6875 C6.46683594 26.77386719 5.49617188 26.86023438 4.49609375 26.94921875 C2 27 2 27 0 26 C0 26.66 0 27.32 0 28 C-0.99 28 -1.98 28 -3 28 C-3.33 26.68 -3.66 25.36 -4 24 C-4.66 24 -5.32 24 -6 24 C-6.33 24.99 -6.66 25.98 -7 27 C-7 26.34 -7 25.68 -7 25 C-8.32 24.67 -9.64 24.34 -11 24 C-9.68 24 -8.36 24 -7 24 C-7.33 23.34 -7.66 22.68 -8 22 C-8.08308638 20.62451844 -8.10736016 19.24514204 -8.09765625 17.8671875 C-8.09282227 16.65869141 -8.09282227 16.65869141 -8.08789062 15.42578125 C-8.07951172 14.58402344 -8.07113281 13.74226563 -8.0625 12.875 C-8.05798828 12.02550781 -8.05347656 11.17601563 -8.04882812 10.30078125 C-8.03702874 8.20049091 -8.01909306 6.1002367 -8 4 C-5.5625 4.375 -5.5625 4.375 -3 5 C-2.67 5.66 -2.34 6.32 -2 7 C-2 5.35 -2 3.7 -2 2 C-1.34 2 -0.68 2 0 2 C0 1.34 0 0.68 0 0 Z " transform="translate(107,106)" style="fill: #EEF8F3;"/><path d="M0 0 C-0.33 1.32 -0.66 2.64 -1 4 C-2.423125 4.0928125 -2.423125 4.0928125 -3.875 4.1875 C-4.90625 4.455625 -5.9375 4.72375 -7 5 C-8.24714403 7.40952023 -8.24714403 7.40952023 -9 10 C-12 12 -12 12 -16 12 C-16 12.66 -16 13.32 -16 14 C-16.66 14 -17.32 14 -18 14 C-18 14.66 -18 15.32 -18 16 C-17.01 16.33 -16.02 16.66 -15 17 C-15.928125 18.11375 -15.928125 18.11375 -16.875 19.25 C-19.00623933 21.80438808 -19.00623933 21.80438808 -20.0625 24.25 C-21 26 -21 26 -24 27 C-24.33 28.65 -24.66 30.3 -25 32 C-26.485 32.495 -26.485 32.495 -28 33 C-28.75 31.3125 -28.75 31.3125 -29 29 C-27.68678142 27.3174387 -26.35386936 25.65002828 -25 24 C-25.33 23.01 -25.66 22.02 -26 21 C-25.67 20.01 -25.34 19.02 -25 18 C-24.96125079 16.33378384 -24.9549714 14.66605828 -25 13 C-24.34 12.67 -23.68 12.34 -23 12 C-22.731875 10.865625 -22.46375 9.73125 -22.1875 8.5625 C-21 5 -21 5 -18.875 3.5625 C-15.15829648 2.83531888 -11.78617191 2.87165519 -8 3 C-8 2.34 -8 1.68 -8 1 C-3.375 -1.125 -3.375 -1.125 0 0 Z " transform="translate(44,37)" style="fill: #D8CDC0;"/><path d="M0 0 C2 1.8125 2 1.8125 3 4 C3 4.99 3 5.98 3 7 C0.36 7 -2.28 7 -5 7 C-4.67 8.32 -4.34 9.64 -4 11 C-1.69 11.33 0.62 11.66 3 12 C3 12.99 3 13.98 3 15 C3.66 15.66 4.32 16.32 5 17 C4.34 17.66 3.68 18.32 3 19 C3 18.34 3 17.68 3 17 C2.01 17 1.02 17 0 17 C-0.33 17.66 -0.66 18.32 -1 19 C-4.16680795 19 -6.91520491 18.72197332 -10 18 C-10.66 17.01 -11.32 16.02 -12 15 C-12.66 16.32 -13.32 17.64 -14 19 C-14.99 19 -15.98 19 -17 19 C-17.33 19.66 -17.66 20.32 -18 21 C-18 19.02 -18 17.04 -18 15 C-18.66 15 -19.32 15 -20 15 C-20 14.34 -20 13.68 -20 13 C-19.01 12.67 -18.02 12.34 -17 12 C-17 12.66 -17 13.32 -17 14 C-16.34 14 -15.68 14 -15 14 C-14.82984375 13.32453125 -14.6596875 12.6490625 -14.484375 11.953125 C-12.04367639 2.96927693 -9.8854858 -1.25529978 0 0 Z " transform="translate(68,115)" style="fill: #DBEBE5;"/><path d="M0 0 C0.66 0.309375 1.32 0.61875 2 0.9375 C4 2 4 2 6 4 C5.39671875 4.18175781 4.7934375 4.36351562 4.171875 4.55078125 C-0.10210307 5.89501629 -3.52439351 7.08049055 -7 10 C-7.66 10 -8.32 10 -9 10 C-9 10.66 -9 11.32 -9 12 C-10.3269043 13.2331543 -10.3269043 13.2331543 -12.13671875 14.63671875 C-16.09910043 17.92057624 -18.89895184 21.60038877 -21.8125 25.8125 C-26.76477024 32.88238512 -26.76477024 32.88238512 -29 34 C-27.17708333 29.3125 -27.17708333 29.3125 -25.9375 27.125 C-24.81430344 24.86692623 -24.81430344 24.86692623 -24.625 21.625 C-23.5065314 15.13788212 -19.18039221 10.85092498 -14.6875 6.25 C-13.78386719 5.30640625 -12.88023438 4.3628125 -11.94921875 3.390625 C-8.53164067 0.62034978 -4.32777214 -2.16388607 0 0 Z " transform="translate(95,30)" style="fill: #4C3925;"/><path d="M0 0 C1.05832031 -0.00773437 2.11664063 -0.01546875 3.20703125 -0.0234375 C8.52331036 -0.01009677 12.88986898 0.20921199 17.875 2.25 C20.20194964 2.62531446 22.53476685 2.96917202 24.875 3.25 C24.545 4.24 24.215 5.23 23.875 6.25 C22.885 6.25 21.895 6.25 20.875 6.25 C20.875 5.59 20.875 4.93 20.875 4.25 C18.235 5.24 15.595 6.23 12.875 7.25 C9.875 4.25 9.875 4.25 9.875 1.25 C8.92625 1.58 7.9775 1.91 7 2.25 C-0.54256512 4.39415662 -8.46971327 3.23777893 -16.125 2.25 C-16.455 3.24 -16.785 4.23 -17.125 5.25 C-29.35648332 7.80448669 -41.65721519 10.26049327 -54.125 11.25 C-52.805 10.92 -51.485 10.59 -50.125 10.25 C-50.125 9.59 -50.125 8.93 -50.125 8.25 C-47.54306023 7.57749476 -44.95967929 6.91182099 -42.375 6.25 C-41.64539062 6.05921875 -40.91578125 5.8684375 -40.1640625 5.671875 C-36.67928354 4.78484036 -33.74376278 4.25 -30.125 4.25 C-29.795 4.58 -29.465 4.91 -29.125 5.25 C-28.465 4.92 -27.805 4.59 -27.125 4.25 C-24.7920134 4.20977609 -22.45793334 4.20679753 -20.125 4.25 C-20.125 3.59 -20.125 2.93 -20.125 2.25 C-13.3388033 0.18961257 -7.06598271 -0.0520195 0 0 Z " transform="translate(104.125,87.75)" style="fill: #BBDFCE;"/><path d="M0 0 C-0.66 0.33 -1.32 0.66 -2 1 C-2.33 1.99 -2.66 2.98 -3 4 C-1.68 4.33 -0.36 4.66 1 5 C-1.10320063 5.50404808 -3.20759791 6.00310508 -5.3125 6.5 C-7.07013672 6.91765625 -7.07013672 6.91765625 -8.86328125 7.34375 C-12 8 -12 8 -15 8 C-15 8.66 -15 9.32 -15 10 C-15.53625 10.15855469 -16.0725 10.31710938 -16.625 10.48046875 C-20.79120384 11.72073667 -24.94898869 12.97762917 -29.0859375 14.3125 C-29.79363281 14.5391333 -30.50132813 14.7657666 -31.23046875 14.99926758 C-32.64344768 15.452727 -34.05495866 15.91079016 -35.46484375 16.3737793 C-38.85286409 17.45657005 -41.40063014 18 -45 18 C-45 17.34 -45 16.68 -45 16 C-42.1433061 14.80971087 -39.28658026 13.61949931 -36.4296875 12.4296875 C-34.24677173 11.51972489 -32.06441673 10.60841502 -29.8828125 9.6953125 C-24.35910891 7.38540009 -18.82587287 5.10919158 -13.25390625 2.91796875 C-11.17464678 2.07112997 -9.1568189 1.14085876 -7.125 0.1875 C-4.0609753 -0.97682939 -2.94595204 -1.2962189 0 0 Z " transform="translate(69,88)" style="fill: #367E5D;"/><path d="M0 0 C1.98 0 3.96 0 6 0 C6.16759984 2.1249266 6.33405201 4.24994376 6.5 6.375 C6.5928125 7.55835937 6.685625 8.74171875 6.78125 9.9609375 C6.90195454 11.63786843 7 13.31873056 7 15 C4.69 15 2.38 15 0 15 C0 14.34 0 13.68 0 13 C0.66 13 1.32 13 2 13 C2 9.37 2 5.74 2 2 C1.34 2 0.68 2 0 2 C0 1.34 0 0.68 0 0 Z M9 0 C12.3 0 15.6 0 19 0 C18.19595286 3.21618856 17.29662577 5.76869185 15.9375 8.75 C15.39416016 9.94882813 15.39416016 9.94882813 14.83984375 11.171875 C14.56269531 11.77515625 14.28554687 12.3784375 14 13 C16.86724686 12.42655063 17.8614515 12.1385485 20 10 C20 11.65 20 13.3 20 15 C16.37 15 12.74 15 9 15 C10.41292095 10.1725201 12.42974154 6.2837641 15 2 C13.68 2 12.36 2 11 2 C10.67 3.32 10.34 4.64 10 6 C9.01 6 8.02 6 7 6 C7.66 4.02 8.32 2.04 9 0 Z " transform="translate(166,115)" style="fill: #AACABC;"/><path d="M0 0 C2 2 2 2 2.3125 5.875 C2.2295898 8.55738885 1.99441061 10.01242088 0.875 12.5 C-1 14 -1 14 -4 14.4375 C-7 14 -7 14 -8.8125 13 C-10.69610382 9.82761461 -11.22865518 6.67323483 -11 3 C-8.14016982 -1.88554322 -5.11519564 -1.32616183 0 0 Z " transform="translate(150,116)" style="fill: #426F5B;"/><path d="M0 0 C3.01281333 -0.28931097 4.51045047 -0.35480566 7.00463867 1.45288086 C7.6360376 2.11682861 8.26743652 2.78077637 8.91796875 3.46484375 C9.61470703 4.18220703 10.31144531 4.89957031 11.02929688 5.63867188 C12.09760742 6.7765918 12.09760742 6.7765918 13.1875 7.9375 C14.61655617 9.42763782 16.04745642 10.91601003 17.48046875 12.40234375 C18.10848389 13.06741943 18.73649902 13.73249512 19.38354492 14.41772461 C20.92912874 16.09209489 20.92912874 16.09209489 23 17 C23 17.66 23 18.32 23 19 C25.65228812 20.07525194 28.28368454 21.09456151 31 22 C31.6875 24.75 31.6875 24.75 32 28 C30.5625 30.375 30.5625 30.375 29 32 C27.125 31.8125 27.125 31.8125 25 31 C24.30075952 29.34673506 23.63873047 27.67757134 23 26 C19.45180448 19.88128513 15.15149689 13.87267876 10 9 C9.34 9 8.68 9 8 9 C5.70351351 6.4385343 5 5.52032428 5 2 C3.35 1.67 1.7 1.34 0 1 C0 0.67 0 0.34 0 0 Z " transform="translate(109,39)" style="fill: #4F4634;"/><path d="M0 0 C2.31 0 4.62 0 7 0 C7.66 3.63 8.32 7.26 9 11 C8.67 11 8.34 11 8 11 C7.67 15.29 7.34 19.58 7 24 C4.69 24 2.38 24 0 24 C0 16.08 0 8.16 0 0 Z " transform="translate(73,106)" style="fill: #C0DFD1;"/><path d="M0 0 C1.22017961 1.38506874 2.43051057 2.78386038 3.53125 4.265625 C6.19674558 7.4131783 9.63815322 9.64754146 13 12 C12.67 12.66 12.34 13.32 12 14 C7.12133225 13.54617044 4.56179299 12.3639156 1 9 C0.34 8.01 -0.32 7.02 -1 6 C-3.05925139 5.27617533 -3.05925139 5.27617533 -5 5 C-5.268125 5.639375 -5.53625 6.27875 -5.8125 6.9375 C-7 9 -7 9 -10 10 C-10 10.66 -10 11.32 -10 12 C-10.99 12 -11.98 12 -13 12 C-13.3160107 8.89881022 -13.37921874 7.48649153 -11.42578125 4.98046875 C-10.72839844 4.38878906 -10.03101563 3.79710937 -9.3125 3.1875 C-8.62800781 2.58292969 -7.94351563 1.97835938 -7.23828125 1.35546875 C-4.55328882 -0.27052143 -3.08727174 -0.47223071 0 0 Z " transform="translate(58,25)" style="fill: #534633;"/><path d="M0 0 C0.66 0.33 1.32 0.66 2 1 C-1.63079841 9.01667437 -5.30481473 17.01281259 -9 25 C-10.921875 24.62890625 -10.921875 24.62890625 -13 24 C-14.25 21.9375 -14.25 21.9375 -15 20 C-15.66 20 -16.32 20 -17 20 C-17 19.01 -17 18.02 -17 17 C-15.68 17 -14.36 17 -13 17 C-13 16.34 -13 15.68 -13 15 C-12.360625 14.773125 -11.72125 14.54625 -11.0625 14.3125 C-8.72806339 13.14749104 -8.72806339 13.14749104 -8.25 10.375 C-8.1675 9.59125 -8.085 8.8075 -8 8 C-7.01 7.67 -6.02 7.34 -5 7 C-3.95107762 5.36368108 -2.95093297 3.69514137 -2 2 C-1.34 1.34 -0.68 0.68 0 0 Z " transform="translate(28,55)" style="fill: #645B4B;"/><path d="M0 0 C5.61 0 11.22 0 17 0 C17.33 1.98 17.66 3.96 18 6 C17.5875 5.525625 17.175 5.05125 16.75 4.5625 C14.86673565 2.63715751 14.86673565 2.63715751 11 2 C11.33 8.6 11.66 15.2 12 22 C9.69 22 7.38 22 5 22 C5 21.34 5 20.68 5 20 C5.66 20 6.32 20 7 20 C7 14.06 7 8.12 7 2 C4.69 2.66 2.38 3.32 0 4 C0 2.68 0 1.36 0 0 Z " transform="translate(88,108)" style="fill: #155439;"/><path d="M0 0 C0.99 0.66 1.98 1.32 3 2 C3 2.99 3 3.98 3 5 C2.34 5 1.68 5 1 5 C0.731875 5.639375 0.46375 6.27875 0.1875 6.9375 C-1 9 -1 9 -4 10 C-4 10.66 -4 11.32 -4 12 C-8.35294118 16 -8.35294118 16 -12 16 C-12.28875 16.78375 -12.5775 17.5675 -12.875 18.375 C-14 21 -14 21 -16 23 C-16.36923077 18.44615385 -16.36923077 18.44615385 -14.5 16.1875 C-14.005 15.795625 -13.51 15.40375 -13 15 C-13.66 14.67 -14.32 14.34 -15 14 C-11.535 7.565 -11.535 7.565 -8 1 C-7.34 1.33 -6.68 1.66 -6 2 C-6.60865021 6.13882142 -8.08855092 9.30009051 -10 13 C-9.36191406 12.14535156 -8.72382812 11.29070313 -8.06640625 10.41015625 C-7.23181293 9.29423934 -6.39717522 8.17835564 -5.5625 7.0625 C-5.14162109 6.49853516 -4.72074219 5.93457031 -4.28710938 5.35351562 C-1.11328125 1.11328125 -1.11328125 1.11328125 0 0 Z " transform="translate(77,50)" style="fill: #C7B7A8;"/><path d="M0 0 C3.0625 0.1875 3.0625 0.1875 5.0625 2.1875 C5.2578125 5.0078125 5.2578125 5.0078125 5.1875 8.3125 C5.16945313 9.40820312 5.15140625 10.50390625 5.1328125 11.6328125 C5.10960937 12.47585937 5.08640625 13.31890625 5.0625 14.1875 C3.58418779 14.38162181 2.10480684 14.56762131 0.625 14.75 C-0.19871094 14.85441406 -1.02242187 14.95882812 -1.87109375 15.06640625 C-2.55300781 15.10636719 -3.23492187 15.14632812 -3.9375 15.1875 C-4.9375 14.1875 -4.9375 14.1875 -5.1875 11.25 C-5.105 10.239375 -5.0225 9.22875 -4.9375 8.1875 C-1.9375 6.1875 -1.9375 6.1875 1.0625 6.1875 C1.0625 4.8675 1.0625 3.5475 1.0625 2.1875 C0.0725 2.1875 -0.9175 2.1875 -1.9375 2.1875 C-2.2675 3.1775 -2.5975 4.1675 -2.9375 5.1875 C-3.5975 5.1875 -4.2575 5.1875 -4.9375 5.1875 C-3.82120474 0.24390669 -3.82120474 0.24390669 0 0 Z " transform="translate(38.9375,114.8125)" style="fill: #93C1AA;"/><path d="M0 0 C5.61 0 11.22 0 17 0 C17.33 1.65 17.66 3.3 18 5 C17.34 4.67 16.68 4.34 16 4 C16 3.34 16 2.68 16 2 C14.35 2 12.7 2 11 2 C11 8.27 11 14.54 11 21 C9.68 21 8.36 21 7 21 C7 14.73 7 8.46 7 2 C4.69 2.66 2.38 3.32 0 4 C0 2.68 0 1.36 0 0 Z " transform="translate(5,108)" style="fill: #215E44;"/><path d="M0 0 C0 1.98 0 3.96 0 6 C-0.99 6.495 -0.99 6.495 -2 7 C-2 8.32 -2 9.64 -2 11 C-3.79296875 13.83984375 -3.79296875 13.83984375 -6.1875 16.9375 C-7.35345703 18.46697266 -7.35345703 18.46697266 -8.54296875 20.02734375 C-10.90552727 22.88570151 -13.33539367 25.43005109 -16 28 C-14.17708333 23.3125 -14.17708333 23.3125 -12.9375 21.125 C-11.81430344 18.86692623 -11.81430344 18.86692623 -11.625 15.625 C-10.91704129 11.51883948 -5.33925136 0 0 0 Z " transform="translate(82,36)" style="fill: #4B3922;"/><path d="M0 0 C1.32 0.33 2.64 0.66 4 1 C3.34 1 2.68 1 2 1 C2 2.65 2 4.3 2 6 C2.66 6 3.32 6 4 6 C4 6.66 4 7.32 4 8 C4.66 8 5.32 8 6 8 C6 8.66 6 9.32 6 10 C4.68 10 3.36 10 2 10 C2.33 11.32 2.66 12.64 3 14 C3.66 14 4.32 14 5 14 C5 14.99 5 15.98 5 17 C2.69 17 0.38 17 -2 17 C-1.34 18.32 -0.68 19.64 0 21 C-1.65 21 -3.3 21 -5 21 C-5 21.66 -5 22.32 -5 23 C-6.32 23.33 -7.64 23.66 -9 24 C-8.34 22.68 -7.68 21.36 -7 20 C-6.34 20 -5.68 20 -5 20 C-5.33 18.68 -5.66 17.36 -6 16 C-4.68 15.67 -3.36 15.34 -2 15 C-2.33 14.34 -2.66 13.68 -3 13 C-3.99 13.495 -3.99 13.495 -5 14 C-4.34 12.02 -3.68 10.04 -3 8 C-3.66 7.67 -4.32 7.34 -5 7 C-5 6.34 -5 5.68 -5 5 C-2.03 5.495 -2.03 5.495 1 6 C1 5.34 1 4.68 1 4 C0.34 3.67 -0.32 3.34 -1 3 C-0.67 2.01 -0.34 1.02 0 0 Z " transform="translate(148,45)" style="fill: #D1C8BB;"/><path d="M0 0 C1.65 1.32 3.3 2.64 5 4 C5 3.01 5 2.02 5 1 C7.31 1.33 9.62 1.66 12 2 C8.25 4 8.25 4 6 4 C4.89356236 9.83394389 4.72862008 12.76579213 8 18 C4.52176885 19.15941038 2.54104422 18.70820884 -1 18 C-0.34 17.01 0.32 16.02 1 15 C-0.98 15 -2.96 15 -5 15 C-5.33 13.35 -5.66 11.7 -6 10 C-3.36 10 -0.72 10 2 10 C1.67 8.02 1.34 6.04 1 4 C-0.65 3.67 -2.3 3.34 -4 3 C-2.68 2.01 -1.36 1.02 0 0 Z " transform="translate(135,112)" style="fill: #D9F1E8;"/><path d="M0 0 C0.33 1.98 0.66 3.96 1 6 C-1.64 6 -4.28 6 -7 6 C-6.67 7.32 -6.34 8.64 -6 10 C-3.69 10 -1.38 10 1 10 C0 13 0 13 -2 14 C-4.9375 14.375 -4.9375 14.375 -8 14 C-9.9375 11.9375 -9.9375 11.9375 -11 9 C-10.88047234 5.53369777 -10.58243801 3.03544535 -8.875 0 C-5.85200363 -1.61226473 -3.2411345 -0.67268829 0 0 Z " transform="translate(136,116)" style="fill: #6C9785;"/><path d="M0 0 C2.4375 0.5625 2.4375 0.5625 4.25 2.375 C5.4375 4.5625 5.4375 4.5625 5.4375 7.5625 C2.7975 7.5625 0.1575 7.5625 -2.5625 7.5625 C-2.2325 8.8825 -1.9025 10.2025 -1.5625 11.5625 C0.7475 11.8925 3.0575 12.2225 5.4375 12.5625 C3.54192866 15.08992845 2.63160622 15.53419284 -0.5625 16 C-3.5625 15.5625 -3.5625 15.5625 -5.4375 13.9375 C-6.90557183 10.83823725 -7.04800505 8.96103536 -6.5625 5.5625 C-4.67331715 2.34389218 -3.69911662 0.81200121 0 0 Z " transform="translate(65.5625,114.4375)" style="fill: #6E9684;"/><path d="M0 0 C3.77076889 -0.05799124 7.54142334 -0.09359306 11.3125 -0.125 C12.38435547 -0.14175781 13.45621094 -0.15851563 14.56054688 -0.17578125 C15.58857422 -0.18222656 16.61660156 -0.18867187 17.67578125 -0.1953125 C18.62364502 -0.20578613 19.57150879 -0.21625977 20.5480957 -0.22705078 C23 0 23 0 26 2 C25.67 4.31 25.34 6.62 25 9 C24.34 8.67 23.68 8.34 23 8 C23.33 6.68 23.66 5.36 24 4 C11.92128787 1.29903575 -0.85316822 3.6556866 -13 5 C-13 4.34 -13 3.68 -13 3 C-10.35541621 1.67770811 -8.32238699 1.90322806 -5.375 1.9375 C-3.87066406 1.95103516 -3.87066406 1.95103516 -2.3359375 1.96484375 C-1.56507812 1.97644531 -0.79421875 1.98804687 0 2 C0 1.34 0 0.68 0 0 Z " transform="translate(109,75)" style="fill: #AEC5AC;"/><path d="M0 0 C3.25 0.125 3.25 0.125 7 1 C9.0625 3.8125 9.0625 3.8125 11 7 C12.97485205 8.3703055 14.97386717 9.70672372 17 11 C20 14.4 20 14.4 20 17 C16 17 16 17 13.5625 14.75 C12.2940625 13.38875 12.2940625 13.38875 11 12 C7.16690738 8.43365007 7.16690738 8.43365007 2 8 C0.23537317 4.91190305 0 3.76687864 0 0 Z " transform="translate(109,22)" style="fill: #443521;"/><path d="M0 0 C1.5195189 0.01152873 3.03905215 0.02130272 4.55859375 0.02929688 C11.00259745 0.08819014 17.25910391 0.29027311 23.625 1.3125 C23.625 2.3025 23.625 3.2925 23.625 4.3125 C20.48003703 4.46226014 18.10084667 4.5044951 15.15625 3.31640625 C10.01884493 1.85588291 5.06242952 2.06352853 -0.25 2.125 C-1.30058594 2.12564453 -2.35117188 2.12628906 -3.43359375 2.12695312 C-9.16904395 2.15925541 -14.70296292 2.45827755 -20.375 3.3125 C-20.375 3.9725 -20.375 4.6325 -20.375 5.3125 C-22.0146875 5.5290625 -22.0146875 5.5290625 -23.6875 5.75 C-27.30622987 6.19538104 -27.30622987 6.19538104 -30.375 7.3125 C-30.375 6.3225 -30.375 5.3325 -30.375 4.3125 C-19.99790843 0.29713514 -10.97021268 -0.21521878 0 0 Z " transform="translate(104.375,86.6875)" style="fill: #2D7555;"/><path d="M0 0 C2.125 0.9375 2.125 0.9375 4 2 C4 2.66 4 3.32 4 4 C4.66 4.33 5.32 4.66 6 5 C5.35341074 8.49158202 4.03960471 11.0974856 2 14 C1.01 14.33 0.02 14.66 -1 15 C-1.33 16.65 -1.66 18.3 -2 20 C-2.99 20.33 -3.98 20.66 -5 21 C-5.75 19.3125 -5.75 19.3125 -6 17 C-4.68678142 15.3174387 -3.35386936 13.65002828 -2 12 C-2.33 11.01 -2.66 10.02 -3 9 C-2.67 8.01 -2.34 7.02 -2 6 C-1.96125079 4.33378384 -1.9549714 2.66605828 -2 1 C-1.34 0.67 -0.68 0.34 0 0 Z " transform="translate(21,49)" style="fill: #E6E1D8;"/><path d="M0 0 C1.3921875 0.3403125 1.3921875 0.3403125 2.8125 0.6875 C1.8225 1.0175 0.8325 1.3475 -0.1875 1.6875 C-0.1875 2.3475 -0.1875 3.0075 -0.1875 3.6875 C1.1325 4.3475 2.4525 5.0075 3.8125 5.6875 C2.8225 6.6775 1.8325 7.6675 0.8125 8.6875 C1.8025 9.0175 2.7925 9.3475 3.8125 9.6875 C2.8125 11.6875 2.8125 11.6875 -0.1875 13.6875 C-0.1875 14.6775 -0.1875 15.6675 -0.1875 16.6875 C-0.8475 16.6875 -1.5075 16.6875 -2.1875 16.6875 C-3.5075 13.0575 -4.8275 9.4275 -6.1875 5.6875 C-7.1775 6.0175 -8.1675 6.3475 -9.1875 6.6875 C-8.8575 5.3675 -8.5275 4.0475 -8.1875 2.6875 C-7.5275 2.6875 -6.8675 2.6875 -6.1875 2.6875 C-5.775 2.171875 -5.3625 1.65625 -4.9375 1.125 C-3.1875 -0.3125 -3.1875 -0.3125 0 0 Z " transform="translate(143.1875,48.3125)" style="fill: #D6CABB;"/><path d="M0 0 C4.36552692 2.31116131 7.12111605 5.01385299 10 9 C3.94142481 11.01952506 0.11469182 11.07899522 -6 9 C-5.67 8.34 -5.34 7.68 -5 7 C-1.9375 6.375 -1.9375 6.375 1 6 C-1.25375317 3.74624683 -2.79200818 3 -6 3 C-7.33783393 2.68521554 -8.67203709 2.35412344 -10 2 C-6.24543433 -0.50304378 -4.45254066 -0.45280074 0 0 Z " transform="translate(98,28)" style="fill: #584932;"/><path d="M0 0 C0 0.66 0 1.32 0 2 C2.64 1.67 5.28 1.34 8 1 C3.88020873 3.14107095 -0.35725975 4.58748673 -4.75 6.0625 C-5.5234375 6.33126953 -6.296875 6.60003906 -7.09375 6.87695312 C-12.08705978 8.55674945 -16.75229583 9.51476708 -22 10 C-22 9.34 -22 8.68 -22 8 C-3.02766798 0 -3.02766798 0 0 0 Z " transform="translate(46,96)" style="fill: #37785B;"/><path d="M0 0 C3.63 0 7.26 0 11 0 C11 0.99 11 1.98 11 3 C9.35 3 7.7 3 6 3 C6 6.3 6 9.6 6 13 C6.66 13 7.32 13 8 13 C8 13.66 8 14.32 8 15 C5.36 15 2.72 15 0 15 C0 14.34 0 13.68 0 13 C0.66 13 1.32 13 2 13 C2 9.37 2 5.74 2 2 C1.34 2 0.68 2 0 2 C0 1.34 0 0.68 0 0 Z " transform="translate(22,115)" style="fill: #316650;"/><path d="M0 0 C0.99 1.32 1.98 2.64 3 4 C2.34 5.32 1.68 6.64 1 8 C1.433125 7.505 1.86625 7.01 2.3125 6.5 C4 5 4 5 7 5 C7 6.32 7 7.64 7 9 C5.35 9.66 3.7 10.32 2 11 C2 13.31 2 15.62 2 18 C0.68 17.34 -0.64 16.68 -2 16 C-1.67 14.68 -1.34 13.36 -1 12 C-1.66 12 -2.32 12 -3 12 C-3.66 13.32 -4.32 14.64 -5 16 C-5 12.7 -5 9.4 -5 6 C-3.35 6 -1.7 6 0 6 C0 5.01 0 4.02 0 3 C-0.99 2.67 -1.98 2.34 -3 2 C-2.01 1.34 -1.02 0.68 0 0 Z " transform="translate(33,112)" style="fill: #D4EFE1;"/><path d="M0 0 C2.31 0 4.62 0 7 0 C7 2.64 7 5.28 7 8 C7.66 8 8.32 8 9 8 C9 5.36 9 2.72 9 0 C10.65 0 12.3 0 14 0 C14 0.66 14 1.32 14 2 C13.34 2 12.68 2 12 2 C11.79503906 2.69867188 11.59007812 3.39734375 11.37890625 4.1171875 C11.10949219 5.02726562 10.84007812 5.93734375 10.5625 6.875 C10.29566406 7.77992187 10.02882813 8.68484375 9.75390625 9.6171875 C9 12 9 12 8 14 C7.34 14 6.68 14 6 14 C5.3291288 12.3767313 4.66342971 10.75132422 4 9.125 C3.62875 8.22007813 3.2575 7.31515625 2.875 6.3828125 C2 4 2 4 2 2 C1.34 2 0.68 2 0 2 C0 1.34 0 0.68 0 0 Z " transform="translate(45,115)" style="fill: #29654C;"/><path d="M0 0 C2.97 0.495 2.97 0.495 6 1 C6 4.96 6 8.92 6 13 C5.34 11.68 4.68 10.36 4 9 C3.67 10.32 3.34 11.64 3 13 C0.69 12.67 -1.62 12.34 -4 12 C-4.33 10.35 -4.66 8.7 -5 7 C-2.36 7 0.28 7 3 7 C2.01 4.69 1.02 2.38 0 0 Z " transform="translate(68,115)" style="fill: #DAF3E9;"/><path d="M0 0 C0 3.63 0 7.26 0 11 C-0.99 11.33 -1.98 11.66 -3 12 C-3.33 12.99 -3.66 13.98 -4 15 C-5.32 15 -6.64 15 -8 15 C-7.32116957 11.88452559 -6.25893098 9.14862279 -4.9375 6.25 C-4.39416016 5.05117187 -4.39416016 5.05117187 -3.83984375 3.828125 C-3.56269531 3.22484375 -3.28554687 2.6215625 -3 2 C-4.65 2 -6.3 2 -8 2 C-8 1.67 -8 1.34 -8 1 C-2.25 -1.125 -2.25 -1.125 0 0 Z " transform="translate(188,113)" style="fill: #E4F4EC;"/><path d="M0 0 C0.99 0 1.98 0 3 0 C3.66 0.99 4.32 1.98 5 3 C6.65 3 8.3 3 10 3 C10 8.61 10 14.22 10 20 C9.67 20 9.34 20 9 20 C8.67 16.7 8.34 13.4 8 10 C7.01 10.33 6.02 10.66 5 11 C5 10.01 5 9.02 5 8 C4.01 7.67 3.02 7.34 2 7 C0 4 0 4 0 0 Z " transform="translate(1,108)" style="fill: #EAFAF3;"/><path d="M0 0 C0.66 0.33 1.32 0.66 2 1 C2 1.66 2 2.32 2 3 C2.66 3 3.32 3 4 3 C4.66 5.31 5.32 7.62 6 10 C6 9.34 6 8.68 6 8 C6.99 7.67 7.98 7.34 9 7 C8.51171875 13.0546875 8.51171875 13.0546875 8 15 C7.01 15.66 6.02 16.32 5 17 C5 15.02 5 13.04 5 11 C3.68 11 2.36 11 1 11 C0.67 9.35 0.34 7.7 0 6 C-0.66 6 -1.32 6 -2 6 C-1.125 1.125 -1.125 1.125 0 0 Z " transform="translate(167,104)" style="fill: #DBEFE7;"/><path d="M0 0 C-0.66 0.99 -1.32 1.98 -2 3 C-5.91593531 3.76783045 -9.70113458 3.98606983 -13.6875 4.171875 C-14.67327026 4.22287354 -14.67327026 4.22287354 -15.67895508 4.27490234 C-17.62256177 4.37176374 -19.56716427 4.44795939 -21.51171875 4.5234375 C-25.15381786 5.02101431 -26.96172394 6.03864713 -30 8 C-33.8125 8.1875 -33.8125 8.1875 -37 8 C-31.67362942 2.67362942 -23.51670545 2.37436628 -16.41796875 1.4765625 C-13.50129328 1.06989461 -10.72933091 0.52018535 -7.875 -0.1875 C-4.3292526 -0.93096317 -3.23635333 -1.01405738 0 0 Z " transform="translate(73,96)" style="fill: #E6F4EB;"/><path d="M0 0 C0.33 0.33 0.66 0.66 1 1 C1.66 0.67 2.32 0.34 3 0 C3.99 0.66 4.98 1.32 6 2 C1.93910105 2.84126612 -2.12395474 3.67161887 -6.1875 4.5 C-7.33798828 4.73847656 -8.48847656 4.97695312 -9.67382812 5.22265625 C-10.78564453 5.44824219 -11.89746094 5.67382812 -13.04296875 5.90625 C-14.06414795 6.11572266 -15.08532715 6.32519531 -16.13745117 6.54101562 C-18.81924732 6.97101791 -21.29051865 7.08705161 -24 7 C-22.68 6.67 -21.36 6.34 -20 6 C-20 5.34 -20 4.68 -20 4 C-17.41806023 3.32749476 -14.83467929 2.66182099 -12.25 2 C-11.15558594 1.71382813 -11.15558594 1.71382813 -10.0390625 1.421875 C-6.55428354 0.53484036 -3.61876278 0 0 0 Z " transform="translate(74,92)" style="fill: #9DCBB3;"/><path d="M0 0 C0.99 0.66 1.98 1.32 3 2 C3 2.66 3 3.32 3 4 C4.98 4.66 6.96 5.32 9 6 C5.25 7.125 5.25 7.125 3 6 C3.33 8.31 3.66 10.62 4 13 C1.3333581 14.33332095 -0.16680303 13.67102033 -3 13 C-2.88557539 11.39504433 -2.75805306 9.79101881 -2.625 8.1875 C-2.55539063 7.29417969 -2.48578125 6.40085937 -2.4140625 5.48046875 C-2 3 -2 3 0 0 Z " transform="translate(106,16)" style="fill: #E9E4DA;"/><path d="M0 0 C1.32 0 2.64 0 4 0 C2.41037341 4.03520597 0.71767682 8.01811282 -1 12 C1.86724686 11.42655063 2.8614515 11.1385485 5 9 C5 10.65 5 12.3 5 14 C1.37 14 -2.26 14 -6 14 C-4.50829734 9.0276578 -2.39542583 4.58154261 0 0 Z " transform="translate(181,116)" style="fill: #295D47;"/><path d="M0 0 C1.32 0 2.64 0 4 0 C4.8388516 7.51094816 5.0773541 14.50824535 4 22 C3.01 22 2.02 22 1 22 C0.67 14.74 0.34 7.48 0 0 Z " transform="translate(109,107)" style="fill: #23563F;"/><path d="M0 0 C1.32 0 2.64 0 4 0 C4.33 7.26 4.66 14.52 5 22 C3.68 22 2.36 22 1 22 C0.67 14.74 0.34 7.48 0 0 Z " transform="translate(74,107)" style="fill: #295E48;"/><path d="M0 0 C-0.33 0.66 -0.66 1.32 -1 2 C-0.34 2.33 0.32 2.66 1 3 C-4.71735105 5.45029331 -8.79029227 6.33266291 -15 6 C-14.67 4.68 -14.34 3.36 -14 2 C-12.04396149 1.47061343 -10.08507711 0.95173199 -8.125 0.4375 C-7.03445312 0.14746094 -5.94390625 -0.14257812 -4.8203125 -0.44140625 C-2 -1 -2 -1 0 0 Z " transform="translate(81,86)" style="fill: #156841;"/><path d="M0 0 C-0.33 2.64 -0.66 5.28 -1 8 C-1.66 8 -2.32 8 -3 8 C-3 8.99 -3 9.98 -3 11 C-5.76276177 10.47731534 -8.3260876 9.89130413 -11 9 C-11 8.01 -11 7.02 -11 6 C-9.35546875 4.39453125 -9.35546875 4.39453125 -7.1875 2.8125 C-6.47980469 2.28269531 -5.77210937 1.75289062 -5.04296875 1.20703125 C-3 0 -3 0 0 0 Z " transform="translate(106,16)" style="fill: #423626;"/><path d="M0 0 C5.61 0 11.22 0 17 0 C17 0.33 17 0.66 17 1 C15.7625 1.0825 14.525 1.165 13.25 1.25 C9.68878334 1.65847747 9.68878334 1.65847747 7 4.0625 C4.61930557 6.36879773 3.94983753 6.26678236 0.75 6.25 C-0.4875 6.1675 -1.725 6.085 -3 6 C-2.67 4.68 -2.34 3.36 -2 2 C-1.34 2 -0.68 2 0 2 C0 1.34 0 0.68 0 0 Z " transform="translate(26,68)" style="fill: #F5EEE5;"/><path d="M0 0 C1 2 1 2 0.51171875 3.98828125 C0.10373047 5.13876953 0.10373047 5.13876953 -0.3125 6.3125 C-0.73402344 7.51132813 -0.73402344 7.51132813 -1.1640625 8.734375 C-2.06484488 11.17574781 -2.99357584 13.60006547 -4 16 C-5.32 15.67 -6.64 15.34 -8 15 C-8.33 13.35 -8.66 11.7 -9 10 C-5.25 7 -5.25 7 -3 7 C-2.814375 5.5459375 -2.814375 5.5459375 -2.625 4.0625 C-2.41875 3.051875 -2.2125 2.04125 -2 1 C-1.34 0.67 -0.68 0.34 0 0 Z " transform="translate(23,64)" style="fill: #41331E;"/><path d="M0 0 C2.475 0.495 2.475 0.495 5 1 C5.33 1.99 5.66 2.98 6 4 C8.97 3.34 11.94 2.68 15 2 C15 2.66 15 3.32 15 4 C15.66 4.66 16.32 5.32 17 6 C16.34 6.66 15.68 7.32 15 8 C15 7.34 15 6.68 15 6 C14.01 6 13.02 6 12 6 C11.67 6.66 11.34 7.32 11 8 C7.88772805 8 5.05847848 7.54372951 2 7 C1.34 4.69 0.68 2.38 0 0 Z " transform="translate(56,126)" style="fill: #E5F1EC;"/><path d="M0 0 C1.60725635 3.21451269 1.05748185 6.43612536 1 10 C-0.65 10.33 -2.3 10.66 -4 11 C-5.62651522 7.74696956 -5.11453156 4.60774398 -5 1 C-4 0 -4 0 0 0 Z " transform="translate(148,117)" style="fill: #E1F8ED;"/><path d="M0 0 C5.61 0 11.22 0 17 0 C17.33 1.98 17.66 3.96 18 6 C17.5875 5.525625 17.175 5.05125 16.75 4.5625 C14.86673565 2.63715751 14.86673565 2.63715751 11 2 C11 7.94 11 13.88 11 20 C10.67 20 10.34 20 10 20 C10 13.73 10 7.46 10 1 C5.05 2.485 5.05 2.485 0 4 C0 2.68 0 1.36 0 0 Z " transform="translate(88,108)" style="fill: #6B8E7E;"/><path d="M0 0 C5.61 0 11.22 0 17 0 C17.33 1.65 17.66 3.3 18 5 C17.34 4.67 16.68 4.34 16 4 C16 3.34 16 2.68 16 2 C14.35 2 12.7 2 11 2 C11 7.94 11 13.88 11 20 C10.67 20 10.34 20 10 20 C10 13.73 10 7.46 10 1 C5.05 2.485 5.05 2.485 0 4 C0 2.68 0 1.36 0 0 Z " transform="translate(5,108)" style="fill: #638B79;"/><path d="M0 0 C3.0625 0.1875 3.0625 0.1875 5.0625 2.1875 C5.2578125 5.0078125 5.2578125 5.0078125 5.1875 8.3125 C5.16945313 9.40820312 5.15140625 10.50390625 5.1328125 11.6328125 C5.10960937 12.47585937 5.08640625 13.31890625 5.0625 14.1875 C4.0725 13.8575 3.0825 13.5275 2.0625 13.1875 C2.0625 9.5575 2.0625 5.9275 2.0625 2.1875 C0.7425 2.1875 -0.5775 2.1875 -1.9375 2.1875 C-2.2675 3.1775 -2.5975 4.1675 -2.9375 5.1875 C-3.5975 5.1875 -4.2575 5.1875 -4.9375 5.1875 C-3.82120474 0.24390669 -3.82120474 0.24390669 0 0 Z " transform="translate(38.9375,114.8125)" style="fill: #2D624B;"/><path d="M0 0 C0.66 0.33 1.32 0.66 2 1 C1.42512098 5.02415313 0.08586402 7.55030181 -2 11 C-2.77346801 13.0293568 -3.4815661 15.06860103 -4.15625 17.1328125 C-5.11132628 19.24636093 -6.28269334 20.4639646 -8 22 C-8.36923077 17.44615385 -8.36923077 17.44615385 -6.5 15.1875 C-6.005 14.795625 -5.51 14.40375 -5 14 C-5.66 13.67 -6.32 13.34 -7 13 C-3.535 6.565 -3.535 6.565 0 0 Z " transform="translate(69,51)" style="fill: #A89A89;"/><path d="M0 0 C1.32 0 2.64 0 4 0 C2.58707905 4.8274799 0.57025846 8.7162359 -2 13 C-2.66 13 -3.32 13 -4 13 C-5.35439668 10.29120665 -5.06501451 7.99066732 -5 5 C-4.360625 4.731875 -3.72125 4.46375 -3.0625 4.1875 C-0.66868314 3.11332248 -0.66868314 3.11332248 0 0 Z " transform="translate(177,117)" style="fill: #DDF6EB;"/><path d="M0 0 C2.0625 0.4375 2.0625 0.4375 4 1 C4 1.66 4 2.32 4 3 C2.35 3.33 0.7 3.66 -1 4 C-1.33 7.3 -1.66 10.6 -2 14 C-2.99 14 -3.98 14 -5 14 C-5.33 9.71 -5.66 5.42 -6 1 C-4.35 1 -2.7 1 -1 1 C-0.67 0.67 -0.34 0.34 0 0 Z " transform="translate(161,115)" style="fill: #2C614A;"/><path d="M0 0 C3.63 0 7.26 0 11 0 C11 0.66 11 1.32 11 2 C12.32 2 13.64 2 15 2 C15 1.34 15 0.68 15 0 C16.32 0.33 17.64 0.66 19 1 C13.8675766 3.67778612 10.10877739 4.28072964 4.33203125 4.0078125 C2.03222341 4.00010795 0.19433144 4.34422279 -2 5 C-1.34 3.35 -0.68 1.7 0 0 Z " transform="translate(70,29)" style="fill: #E4DBD4;"/><path d="M0 0 C0.66 0 1.32 0 2 0 C2.144375 1.134375 2.28875 2.26875 2.4375 3.4375 C2.61171478 6.80777201 2.61171478 6.80777201 4 8 C6.33297433 8.04092937 8.66705225 8.04241723 11 8 C10 11 10 11 8 12 C5.0625 12.375 5.0625 12.375 2 12 C0.0625 9.9375 0.0625 9.9375 -1 7 C-0.6875 3.1875 -0.6875 3.1875 0 0 Z " transform="translate(126,118)" style="fill: #69897D;"/><path d="M0 0 C4.69564393 3.31457218 7.72469104 7.36279281 11 12 C10.34 12.66 9.68 13.32 9 14 C7.5 12.625 7.5 12.625 6 11 C6 10.34 6 9.68 6 9 C5.34 9 4.68 9 4 9 C3.67 7.68 3.34 6.36 3 5 C2.4225 5.680625 1.845 6.36125 1.25 7.0625 C0.5075 7.701875 -0.235 8.34125 -1 9 C-3.25 8.75 -3.25 8.75 -5 8 C-3.68 7.67 -2.36 7.34 -1 7 C-0.67 4.69 -0.34 2.38 0 0 Z " transform="translate(118,47)" style="fill: #BCAC9A;"/><path d="M0 0 C0.33 1.32 0.66 2.64 1 4 C4.58327753 5.00217064 4.58327753 5.00217064 8 4 C8 4.66 8 5.32 8 6 C9.32 5.67 10.64 5.34 12 5 C12.33 5.66 12.66 6.32 13 7 C12.34 7 11.68 7 11 7 C11 7.66 11 8.32 11 9 C5.25 9.125 5.25 9.125 3 8 C2.67 8.66 2.34 9.32 2 10 C0.35 8.35 -1.3 6.7 -3 5 C-2.34 5 -1.68 5 -1 5 C-0.67 3.35 -0.34 1.7 0 0 Z " transform="translate(103,24)" style="fill: #CBBFB1;"/><path d="M0 0 C2.5 1.3125 2.5 1.3125 5 3 C5 3.99 5 4.98 5 6 C4.01 5.67 3.02 5.34 2 5 C2 4.34 2 3.68 2 3 C1.01 3.495 1.01 3.495 0 4 C-0.65772428 7.02934491 -0.65772428 7.02934491 -1 10 C-2.98 10 -4.96 10 -7 10 C-7 11.65 -7 13.3 -7 15 C-8.32 14.34 -9.64 13.68 -11 13 C-8.53846154 9.18461538 -8.53846154 9.18461538 -5.8125 8.25 C-4.9153125 8.12625 -4.9153125 8.12625 -4 8 C-4 7.34 -4 6.68 -4 6 C-3.34 6 -2.68 6 -2 6 C-2.33 4.68 -2.66 3.36 -3 2 C-2.01 1.34 -1.02 0.68 0 0 Z " transform="translate(139,75)" style="fill: #CDDDD1;"/><path d="M0 0 C0.66 0 1.32 0 2 0 C2.144375 1.134375 2.28875 2.26875 2.4375 3.4375 C2.61171478 6.80777201 2.61171478 6.80777201 4 8 C6.32817964 8.36760731 8.6618385 8.70241581 11 9 C9.10442866 11.52742845 8.19410622 11.97169284 5 12.4375 C2 12 2 12 0.125 10.375 C-1.28618906 7.39582309 -1.28362182 5.26165094 -1 2 C-0.67 1.34 -0.34 0.68 0 0 Z " transform="translate(60,118)" style="fill: #2D634C;"/><path d="M0 0 C1.65 0.33 3.3 0.66 5 1 C5.33 5.29 5.66 9.58 6 14 C4.68 14 3.36 14 2 14 C2 10.37 2 6.74 2 3 C0.68 2.67 -0.64 2.34 -2 2 C-1.34 1.34 -0.68 0.68 0 0 Z " transform="translate(116,115)" style="fill: #31634D;"/><path d="M0 0 C2.31 0 4.62 0 7 0 C8 7.625 8 7.625 8 11 C7.01 11.495 7.01 11.495 6 12 C6 8.37 6 4.74 6 1 C5.01 1.33 4.02 1.66 3 2 C3 5.3 3 8.6 3 12 C2.34 10.68 1.68 9.36 1 8 C1.33 7.34 1.66 6.68 2 6 C1.01 6.33 0.02 6.66 -1 7 C-1.33 5.35 -1.66 3.7 -2 2 C-1.34 2 -0.68 2 0 2 C0 1.34 0 0.68 0 0 Z " transform="translate(107,106)" style="fill: #D4F2E3;"/><path d="M0 0 C-1.75376953 0.59748047 -1.75376953 0.59748047 -3.54296875 1.20703125 C-5.09124815 1.74189141 -6.63941959 2.27706417 -8.1875 2.8125 C-8.95642578 3.07353516 -9.72535156 3.33457031 -10.51757812 3.60351562 C-13.89384174 4.77723817 -16.84973927 5.90952258 -19.92578125 7.76171875 C-20.61027344 8.17035156 -21.29476562 8.57898438 -22 9 C-22.66 8.67 -23.32 8.34 -24 8 C-23.67 7.01 -23.34 6.02 -23 5 C-23.66 5 -24.32 5 -25 5 C-25 4.34 -25 3.68 -25 3 C-24.46375 3.165 -23.9275 3.33 -23.375 3.5 C-20.54113991 4.09660212 -17.8880194 4.0656368 -15 4 C-15 3.34 -15 2.68 -15 2 C-13.68 2.33 -12.36 2.66 -11 3 C-11 2.34 -11 1.68 -11 1 C-3.375 -1.125 -3.375 -1.125 0 0 Z " transform="translate(54,93)" style="fill: #C7E6D6;"/><path d="M0 0 C2.07421875 -0.40625 2.07421875 -0.40625 5 0 C7.5453605 1.90159228 9.65007239 4.18087473 11.8125 6.5 C12.40998047 7.12003906 13.00746094 7.74007812 13.62304688 8.37890625 C15.09357441 9.90825488 16.5483573 11.45271466 18 13 C17.01 13.66 16.02 14.32 15 15 C13.824375 13.515 13.824375 13.515 12.625 12 C11.75875 11.01 10.8925 10.02 10 9 C9.34 9 8.68 9 8 9 C5.70351351 6.4385343 5 5.52032428 5 2 C3.35 1.67 1.7 1.34 0 1 C0 0.67 0 0.34 0 0 Z " transform="translate(109,39)" style="fill: #675744;"/><path d="M0 0 C2.0625 0.4375 2.0625 0.4375 4 1 C4 1.66 4 2.32 4 3 C4.55479292 6.94120214 4.55479292 6.94120214 7 10 C5 11 5 11 1.875 10.0625 C0.92625 9.711875 -0.0225 9.36125 -1 9 C-1.09765625 2.84765625 -1.09765625 2.84765625 -1 1 C-0.67 0.67 -0.34 0.34 0 0 Z " transform="translate(115,105)" style="fill: #EBFAF2;"/><path d="M0 0 C-0.99 0.495 -0.99 0.495 -2 1 C-2.33 1.66 -2.66 2.32 -3 3 C-5.4375 4.1875 -5.4375 4.1875 -8 5 C-8.66 4.67 -9.32 4.34 -10 4 C-10 5.98 -10 7.96 -10 10 C-11.98 9.34 -13.96 8.68 -16 8 C-15.34 7.01 -14.68 6.02 -14 5 C-13.34 5 -12.68 5 -12 5 C-12 4.34 -12 3.68 -12 3 C-8.02806853 -0.12940055 -4.95769796 -0.29162929 0 0 Z " transform="translate(98,37)" style="fill: #CBBBA9;"/><path d="M0 0 C0.70640625 0.28746094 1.4128125 0.57492188 2.140625 0.87109375 C2.67171875 1.09925781 3.2028125 1.32742187 3.75 1.5625 C3.75 2.5525 3.75 3.5425 3.75 4.5625 C3.09 4.5625 2.43 4.5625 1.75 4.5625 C1.75 5.5525 1.75 6.5425 1.75 7.5625 C1.09 7.5625 0.43 7.5625 -0.25 7.5625 C-0.724375 6.923125 -1.19875 6.28375 -1.6875 5.625 C-3.1591365 3.27877037 -3.1591365 3.27877037 -6.25 2.5625 C-6.25 1.9025 -6.25 1.2425 -6.25 0.5625 C-6.91 0.2325 -7.57 -0.0975 -8.25 -0.4375 C-4.94564916 -1.56127697 -3.1993138 -1.33304742 0 0 Z " transform="translate(128.25,26.4375)" style="fill: #D7CCC0;"/><path d="M0 0 C0.99 0 1.98 0 3 0 C3 2.31 3 4.62 3 7 C4.98 7 6.96 7 9 7 C5.71508627 9.18994248 4.16904361 9.35277339 0.3125 9.625 C-0.68136719 9.69976562 -1.67523438 9.77453125 -2.69921875 9.8515625 C-3.45847656 9.90054688 -4.21773438 9.94953125 -5 10 C-5.33 9.01 -5.66 8.02 -6 7 C-3.69 7 -1.38 7 1 7 C0.67 4.69 0.34 2.38 0 0 Z " transform="translate(114,123)" style="fill: #E4F7EF;"/><path d="M0 0 C5.27203646 -0.27036084 9.92523206 0.73694665 15 2 C14.67 2.99 14.34 3.98 14 5 C13.01 5 12.02 5 11 5 C11 4.34 11 3.68 11 3 C8.36 3.99 5.72 4.98 3 6 C0 3 0 3 0 0 Z " transform="translate(114,89)" style="fill: #D8EDE3;"/><path d="M0 0 C1.32 0.33 2.64 0.66 4 1 C4.33 2.98 4.66 4.96 5 7 C3.35 7 1.7 7 0 7 C0 9.31 0 11.62 0 14 C-0.66 14 -1.32 14 -2 14 C-2 14.66 -2 15.32 -2 16 C-2.99 16.33 -3.98 16.66 -5 17 C-3.98959116 14.45340397 -2.96466157 11.91671119 -1.89453125 9.39453125 C-1.53746094 8.54246094 -1.18039063 7.69039062 -0.8125 6.8125 C-0.26529297 5.52279297 -0.26529297 5.52279297 0.29296875 4.20703125 C1.2864346 1.99056384 1.2864346 1.99056384 0 0 Z " transform="translate(28,54)" style="fill: #C8BCAD;"/><path d="M0 0 C2.96175123 0.61277612 4.38058783 1.25372522 7 3 C7 3.66 7 4.32 7 5 C7.99 5.33 8.98 5.66 10 6 C9.6875 7.9375 9.6875 7.9375 9 10 C8.01 10.33 7.02 10.66 6 11 C1.71428571 3.57142857 1.71428571 3.57142857 0 0 Z " transform="translate(125,53)" style="fill: #453520;"/><path d="M0 0 C0.66 0.33 1.32 0.66 2 1 C2.66 1.309375 3.32 1.61875 4 1.9375 C6 3 6 3 8 5 C4.7 5.66 1.4 6.32 -2 7 C-2 6.34 -2 5.68 -2 5 C-2.99 4.67 -3.98 4.34 -5 4 C-5 3.34 -5 2.68 -5 2 C-2.625 0.9375 -2.625 0.9375 0 0 Z " transform="translate(93,29)" style="fill: #3D2C11;"/><path d="M0 0 C4.29 0 8.58 0 13 0 C10.68994131 2.31005869 9.16916343 2.72174103 6.0625 3.625 C4.74958984 4.01558594 4.74958984 4.01558594 3.41015625 4.4140625 C1 5 1 5 -2 5 C-2 4.01 -2 3.02 -2 2 C-1.34 2 -0.68 2 0 2 C0 1.34 0 0.68 0 0 Z " transform="translate(58,85)" style="fill: #E5F4E9;"/><path d="M0 0 C0.66 0.33 1.32 0.66 2 1 C2 1.99 2 2.98 2 4 C2.66 4.33 3.32 4.66 4 5 C4 5.66 4 6.32 4 7 C4.66 7 5.32 7 6 7 C6.66 5.68 7.32 4.36 8 3 C9.41377341 5.63904371 10.37240135 8.07120629 11 11 C7.62537285 10.45276317 5.91765 9.9451 3 8 C3 7.34 3 6.68 3 6 C2.0409375 5.566875 2.0409375 5.566875 1.0625 5.125 C-1 4 -1 4 -2 2 C-1.34 2 -0.68 2 0 2 C0 1.34 0 0.68 0 0 Z " transform="translate(129,50)" style="fill: #D0C0AF;"/><path d="M0 0 C1.32 0.33 2.64 0.66 4 1 C3.34 1 2.68 1 2 1 C2 2.65 2 4.3 2 6 C2.66 6 3.32 6 4 6 C4 6.66 4 7.32 4 8 C4.66 8 5.32 8 6 8 C6 8.66 6 9.32 6 10 C3.69 10 1.38 10 -1 10 C-1 9.34 -1 8.68 -1 8 C-2.32 7.67 -3.64 7.34 -5 7 C-5 6.34 -5 5.68 -5 5 C-2.03 5.495 -2.03 5.495 1 6 C1 5.34 1 4.68 1 4 C0.34 3.67 -0.32 3.34 -1 3 C-0.67 2.01 -0.34 1.02 0 0 Z " transform="translate(148,45)" style="fill: #E1D9CD;"/><path d="M0 0 C1.17825358 0.90172468 2.34231577 1.82201502 3.5 2.75 C4.1496875 3.26046875 4.799375 3.7709375 5.46875 4.296875 C7 6 7 6 7 10 C5.35 10 3.7 10 2 10 C2 9.34 2 8.68 2 8 C0.02 8.33 -1.96 8.66 -4 9 C-4 8.34 -4 7.68 -4 7 C-2.02 6.34 -0.04 5.68 2 5 C1.34 4.34 0.68 3.68 0 3 C0 2.01 0 1.02 0 0 Z " transform="translate(150,37)" style="fill: #D7D1C9;"/><path d="M0 0 C0.66 -0.33 1.32 -0.66 2 -1 C2 -0.01 2 0.98 2 2 C3.32 2.33 4.64 2.66 6 3 C0.39 3 -5.22 3 -11 3 C-10.34 2.67 -9.68 2.34 -9 2 C-9 1.34 -9 0.68 -9 0 C-5.50581737 -1.16472754 -3.5736062 -0.6082734 0 0 Z " transform="translate(99,105)" style="fill: #D8ECE2;"/><path d="M0 0 C1.89551022 -0.05441656 3.7914792 -0.09298035 5.6875 -0.125 C6.74324219 -0.14820312 7.79898438 -0.17140625 8.88671875 -0.1953125 C12.02251859 0.00141271 14.17645373 0.66942346 17 2 C16.5206753 6.31392226 15.2542015 8.16569547 12 11 C12 9.68 12 8.36 12 7 C12.66 7 13.32 7 14 7 C13.67 5.68 13.34 4.36 13 3 C9.41672247 1.99782936 9.41672247 1.99782936 6 3 C3.98072489 2.39421747 1.97746603 1.73080266 0 1 C0 0.67 0 0.34 0 0 Z " transform="translate(116,77)" style="fill: #296A45;"/><path d="M0 0 C0 0.66 0 1.32 0 2 C-1.32 2.33 -2.64 2.66 -4 3 C-3.34 3.33 -2.68 3.66 -2 4 C-2 4.66 -2 5.32 -2 6 C-5.75 7.125 -5.75 7.125 -8 6 C-8.33 5.34 -8.66 4.68 -9 4 C-11.31 4.33 -13.62 4.66 -16 5 C-15 3 -15 3 -12.63671875 2.1484375 C-11.66347656 1.89320312 -10.69023438 1.63796875 -9.6875 1.375 C-8.72199219 1.11460938 -7.75648437 0.85421875 -6.76171875 0.5859375 C-4 0 -4 0 0 0 Z " transform="translate(88,82)" style="fill: #2E7751;"/><path d="M0 0 C1.32 0 2.64 0 4 0 C4 4.29 4 8.58 4 13 C3.01 13 2.02 13 1 13 C0.67 8.71 0.34 4.42 0 0 Z " transform="translate(167,116)" style="fill: #1A543C;"/><path d="M0 0 C4.87153789 0.41756039 6.75362285 2.49732992 10 6 C12.95377498 8.36980013 12.95377498 8.36980013 17 8 C17 8.66 17 9.32 17 10 C13.6212639 10.28525915 10.36919878 10.44016952 7 10 C4.77607706 7.57390225 4.20323222 5.91454501 3.5 2.75 C3.335 2.1725 3.17 1.595 3 1 C2.01 0.67 1.02 0.34 0 0 Z " transform="translate(53,30)" style="fill: #C9BCA8;"/><path d="M0 0 C0 0.99 0 1.98 0 3 C-1.65 3 -3.3 3 -5 3 C-5 6.3 -5 9.6 -5 13 C-4.34 13 -3.68 13 -3 13 C-3 13.66 -3 14.32 -3 15 C-5.64 15 -8.28 15 -11 15 C-11 14.34 -11 13.68 -11 13 C-8.525 13.495 -8.525 13.495 -6 14 C-6 9.71 -6 5.42 -6 1 C-4 0 -4 0 0 0 Z " transform="translate(33,115)" style="fill: #8DB4A2;"/><path d="M0 0 C0.99 0.495 0.99 0.495 2 1 C2 1.66 2 2.32 2 3 C3.98 3.66 5.96 4.32 8 5 C7.67 6.98 7.34 8.96 7 11 C5.68 11 4.36 11 3 11 C3.33 9.68 3.66 8.36 4 7 C3.34 7 2.68 7 2 7 C0 4 0 4 0 0 Z " transform="translate(110,43)" style="fill: #403016;"/><path d="M0 0 C0.99 0.33 1.98 0.66 3 1 C2.47731534 3.76276177 1.89130413 6.3260876 1 9 C-1.475 8.01 -1.475 8.01 -4 7 C-4 6.01 -4 5.02 -4 4 C-3.34 4 -2.68 4 -2 4 C-1.34 2.68 -0.68 1.36 0 0 Z " transform="translate(37,43)" style="fill: #554432;"/><path d="M0 0 C0.103125 0.639375 0.20625 1.27875 0.3125 1.9375 C0.539375 2.618125 0.76625 3.29875 1 4 C1.99 4.33 2.98 4.66 4 5 C3.01 5.33 2.02 5.66 1 6 C0.67 7.98 0.34 9.96 0 12 C-2.31 11.34 -4.62 10.68 -7 10 C-4.8614515 7.8614515 -3.86724686 7.57344937 -1 7 C-1 6.01 -1 5.02 -1 4 C-0.6937566 2.66018514 -0.36548445 1.32488113 0 0 Z M4 2 C4.99 2.495 4.99 2.495 6 3 C5.01 3.495 5.01 3.495 4 4 C4 3.34 4 2.68 4 2 Z " transform="translate(44,33)" style="fill: #BEB1A1;"/><path d="M0 0 C0.33 0 0.66 0 1 0 C0.67 2.31 0.34 4.62 0 7 C0.99 7 1.98 7 3 7 C3 7.66 3 8.32 3 9 C2.34 9 1.68 9 1 9 C0.67 9.99 0.34 10.98 0 12 C-0.99 11.67 -1.98 11.34 -3 11 C-3 10.34 -3 9.68 -3 9 C-3.66 8.67 -4.32 8.34 -5 8 C-4.67 7.01 -4.34 6.02 -4 5 C-3.01 5 -2.02 5 -1 5 C-0.67 3.35 -0.34 1.7 0 0 Z " transform="translate(154,123)" style="fill: #E7F7EE;"/><path d="M0 0 C0.33 0 0.66 0 1 0 C1 3.3 1 6.6 1 10 C1.66 10 2.32 10 3 10 C3 10.99 3 11.98 3 13 C0.09399739 14.25664978 -1.79604584 15 -5 15 C-5 14.34 -5 13.68 -5 13 C-6.32 12.67 -7.64 12.34 -9 12 C-4.545 11.505 -4.545 11.505 0 11 C0 7.37 0 3.74 0 0 Z " transform="translate(44,118)" style="fill: #CAE3D7;"/><path d="M0 0 C0.66 0.66 1.32 1.32 2 2 C1.01 3.485 1.01 3.485 0 5 C-0.39013716 6.9896995 -0.73202649 8.99019869 -1 11 C-1.99 11 -2.98 11 -4 11 C-4.49230769 4.6 -4.49230769 4.6 -2 1.5625 C-1.34 1.046875 -0.68 0.53125 0 0 Z M-5 11 C-4.67 11.99 -4.34 12.98 -4 14 C-4.99 14.495 -4.99 14.495 -6 15 C-5.67 13.68 -5.34 12.36 -5 11 Z " transform="translate(60,115)" style="fill: #E5FCF2;"/><path d="M0 0 C1.49080078 0.16628906 1.49080078 0.16628906 3.01171875 0.3359375 C3.77097656 0.43132812 4.53023437 0.52671875 5.3125 0.625 C5.3125 0.955 5.3125 1.285 5.3125 1.625 C3.6625 1.625 2.0125 1.625 0.3125 1.625 C0.498125 2.57375 0.68375 3.5225 0.875 4.5 C1.3125 7.625 1.3125 7.625 0.3125 9.625 C-0.3475 9.625 -1.0075 9.625 -1.6875 9.625 C-2.8125 3.875 -2.8125 3.875 -1.6875 1.625 C-3.9975 1.625 -6.3075 1.625 -8.6875 1.625 C-5.1388865 -0.74074234 -4.1110475 -0.48365265 0 0 Z " transform="translate(53.6875,113.375)" style="fill: #D4F2E5;"/><path d="M0 0 C0 0.33 0 0.66 0 1 C-2.64 1.33 -5.28 1.66 -8 2 C-8 2.66 -8 3.32 -8 4 C-9.6396875 4.2165625 -9.6396875 4.2165625 -11.3125 4.4375 C-14.93122987 4.88288104 -14.93122987 4.88288104 -18 6 C-18 5.01 -18 4.02 -18 3 C-11.79485526 0.86380263 -6.57315478 -0.36517527 0 0 Z " transform="translate(92,88)" style="fill: #62A285;"/><path d="M0 0 C0 5.94 0 11.88 0 18 C-0.33 18 -0.66 18 -1 18 C-1.06058594 17.09636719 -1.12117188 16.19273438 -1.18359375 15.26171875 C-1.26738281 14.08222656 -1.35117188 12.90273437 -1.4375 11.6875 C-1.51871094 10.51574219 -1.59992188 9.34398438 -1.68359375 8.13671875 C-1.8867371 4.97409042 -1.8867371 4.97409042 -3 2 C-4.65 2.66 -6.3 3.32 -8 4 C-6.38669582 -0.83991253 -5.2547601 0 0 0 Z " transform="translate(95,110)" style="fill: #C7E9DA;"/><path d="M0 0 C3 0 3 0 5 2 C5 2.99 5 3.98 5 5 C5.99 5.33 6.98 5.66 8 6 C7.01 7.485 7.01 7.485 6 9 C4.02 8.34 2.04 7.68 0 7 C0.33 5.68 0.66 4.36 1 3 C0.34 3 -0.32 3 -1 3 C-0.67 2.01 -0.34 1.02 0 0 Z " transform="translate(53,31)" style="fill: #DED2C2;"/><path d="M0 0 C0.33 0 0.66 0 1 0 C1 4.29 1 8.58 1 13 C-0.65 13.33 -2.3 13.66 -4 14 C-4.33 13.01 -4.66 12.02 -5 11 C-4.01 11 -3.02 11 -2 11 C-2.309375 9.824375 -2.309375 9.824375 -2.625 8.625 C-2.74875 7.75875 -2.8725 6.8925 -3 6 C-2.34 5.34 -1.68 4.68 -1 4 C-0.3574765 1.93125966 -0.3574765 1.93125966 0 0 Z " transform="translate(82,119)" style="fill: #EBF5F0;"/><path d="M0 0 C3.875 0.875 3.875 0.875 5 2 C5.23880597 9.52238806 5.23880597 9.52238806 4 12 C3.34 12 2.68 12 2 12 C1.93941406 11.38511719 1.87882813 10.77023438 1.81640625 10.13671875 C1.73261719 9.32847656 1.64882812 8.52023438 1.5625 7.6875 C1.48128906 6.88699219 1.40007812 6.08648437 1.31640625 5.26171875 C1.04734307 2.83912821 1.04734307 2.83912821 0 0 Z " transform="translate(147,116)" style="fill: #265B44;"/><path d="M0 0 C-0.474375 0.5775 -0.94875 1.155 -1.4375 1.75 C-3.11158836 3.86210493 -3.11158836 3.86210493 -3.5 6.1875 C-3.665 6.785625 -3.83 7.38375 -4 8 C-4.99 8.33 -5.98 8.66 -7 9 C-7.33 6.03 -7.66 3.06 -8 0 C-4.71303767 -0.79953138 -3.28976808 -1.09658936 0 0 Z " transform="translate(129,116)" style="fill: #DEF7EB;"/><path d="M0 0 C0.33 0.99 0.66 1.98 1 3 C1.66 3.33 2.32 3.66 3 4 C1.58461283 4.33872513 0.16762037 4.67074624 -1.25 5 C-2.03890625 5.185625 -2.8278125 5.37125 -3.640625 5.5625 C-6 6 -6 6 -10 6 C-10 6.66 -10 7.32 -10 8 C-10.66 8 -11.32 8 -12 8 C-11.67 7.01 -11.34 6.02 -11 5 C-10.34 5 -9.68 5 -9 5 C-9 4.34 -9 3.68 -9 3 C-8.43410156 2.86722656 -7.86820313 2.73445313 -7.28515625 2.59765625 C-6.18494141 2.33275391 -6.18494141 2.33275391 -5.0625 2.0625 C-4.33160156 1.88847656 -3.60070312 1.71445313 -2.84765625 1.53515625 C-1.00030102 1.16112431 -1.00030102 1.16112431 0 0 Z " transform="translate(53,88)" style="fill: #E6F5ED;"/><path d="M0 0 C0.66 0.33 1.32 0.66 2 1 C1.21394124 2.79413411 0.42096137 4.58523715 -0.375 6.375 C-0.81585937 7.37273438 -1.25671875 8.37046875 -1.7109375 9.3984375 C-3 12 -3 12 -5 14 C-5.29557392 8.97524332 -5.0282379 6.07647409 -2 2 C-1.34 1.34 -0.68 0.68 0 0 Z " transform="translate(28,55)" style="fill: #524637;"/><path d="M0 0 C2.25 1.9375 2.25 1.9375 4 4 C3.01 4.99 2.02 5.98 1 7 C-1.31 6.34 -3.62 5.68 -6 5 C-6 4.34 -6 3.68 -6 3 C-5.34 3 -4.68 3 -4 3 C-4 2.34 -4 1.68 -4 1 C-2.25 0.25 -2.25 0.25 0 0 Z " transform="translate(32,48)" style="fill: #D0C4B3;"/><path d="M0 0 C0.33 0.33 0.66 0.66 1 1 C1.66 0.67 2.32 0.34 3 0 C3.99 0.66 4.98 1.32 6 2 C4.22978678 2.336611 2.45880326 2.66917293 0.6875 3 C-0.29863281 3.185625 -1.28476563 3.37125 -2.30078125 3.5625 C-5 4 -5 4 -8 4 C-8 3.34 -8 2.68 -8 2 C-8.66 1.67 -9.32 1.34 -10 1 C-6.56484998 0.37542727 -3.50935186 0 0 0 Z " transform="translate(74,92)" style="fill: #8DBAA2;"/><path d="M0 0 C0.80566406 0.00322266 1.61132812 0.00644531 2.44140625 0.00976562 C3.70404297 0.02233398 3.70404297 0.02233398 4.9921875 0.03515625 C5.84167969 0.03966797 6.69117187 0.04417969 7.56640625 0.04882812 C9.66669659 0.06062751 11.7669508 0.07856319 13.8671875 0.09765625 C13.8671875 0.42765625 13.8671875 0.75765625 13.8671875 1.09765625 C7.2671875 1.75765625 0.6671875 2.41765625 -6.1328125 3.09765625 C-6.1328125 2.43765625 -6.1328125 1.77765625 -6.1328125 1.09765625 C-3.8362755 -0.05061225 -2.54968083 -0.0179555 0 0 Z " transform="translate(102.1328125,76.90234375)" style="fill: #90B297;"/><path d="M0 0 C0.66 0.33 1.32 0.66 2 1 C2 1.66 2 2.32 2 3 C2.66 3 3.32 3 4 3 C4 4.65 4 6.3 4 8 C2.68 8 1.36 8 0 8 C0 7.34 0 6.68 0 6 C-0.66 6 -1.32 6 -2 6 C-1.125 1.125 -1.125 1.125 0 0 Z " transform="translate(167,104)" style="fill: #A3B6AF;"/><path d="M0 0 C0.66 0.66 1.32 1.32 2 2 C2.99 2.33 3.98 2.66 5 3 C3.625 4.5 3.625 4.5 2 6 C1.34 6 0.68 6 0 6 C0 6.66 0 7.32 0 8 C-0.99 8 -1.98 8 -3 8 C-3.36923077 3.44615385 -3.36923077 3.44615385 -1.5 1.1875 C-1.005 0.795625 -0.51 0.40375 0 0 Z " transform="translate(48,29)" style="fill: #5F5746;"/><path d="M0 0 C2.64 0 5.28 0 8 0 C7.01 0.33 6.02 0.66 5 1 C5 1.99 5 2.98 5 4 C6.32 4 7.64 4 9 4 C8.67 4.66 8.34 5.32 8 6 C5.69 5.67 3.38 5.34 1 5 C0.67 3.35 0.34 1.7 0 0 Z " transform="translate(63,122)" style="fill: #C8E4D8;"/><path d="M0 0 C0.99 0.33 1.98 0.66 3 1 C2.67 1.99 2.34 2.98 2 4 C2.66 4 3.32 4 4 4 C4 7.63 4 11.26 4 15 C3.34 15 2.68 15 2 15 C2 12.03 2 9.06 2 6 C1.34 5.67 0.68 5.34 0 5 C0 3.35 0 1.7 0 0 Z " transform="translate(164,113)" style="fill: #D8F3E6;"/><path d="M0 0 C0.33 0 0.66 0 1 0 C1 5.94 1 11.88 1 18 C2.32 18 3.64 18 5 18 C5 18.66 5 19.32 5 20 C2.69 20 0.38 20 -2 20 C-2 19.34 -2 18.68 -2 18 C-1.34 18 -0.68 18 0 18 C0 12.06 0 6.12 0 0 Z " transform="translate(95,110)" style="fill: #416E5B;"/><path d="M0 0 C2 2 2 2 2 5 C1.01 5.495 1.01 5.495 0 6 C0 7.32 0 8.64 0 10 C-0.66 10 -1.32 10 -2 10 C-1.67 10.99 -1.34 11.98 -1 13 C-1.66 13 -2.32 13 -3 13 C-3.02689216 11.52093108 -3.04634621 10.04172517 -3.0625 8.5625 C-3.07410156 7.73878906 -3.08570313 6.91507812 -3.09765625 6.06640625 C-3 4 -3 4 -2 3 C-2.33 2.34 -2.66 1.68 -3 1 C-2.01 0.67 -1.02 0.34 0 0 Z " transform="translate(137,71)" style="fill: #D6D1C7;"/><path d="M0 0 C0 0.66 0 1.32 0 2 C-0.66 2 -1.32 2 -2 2 C-2 2.66 -2 3.32 -2 4 C-4.64 4.33 -7.28 4.66 -10 5 C-10 4.01 -10 3.02 -10 2 C-6.38026598 0.68373308 -3.90432869 0 0 0 Z " transform="translate(56,93)" style="fill: #1F6C4A;"/><path d="M0 0 C0.66 0.33 1.32 0.66 2 1 C2 1.66 2 2.32 2 3 C2.66 3 3.32 3 4 3 C3.67 4.32 3.34 5.64 3 7 C3.66 7.33 4.32 7.66 5 8 C3.35 8.33 1.7 8.66 0 9 C-1.125 2.25 -1.125 2.25 0 0 Z " transform="translate(110,47)" style="fill: #50412A;"/><path d="M0 0 C0.33 0 0.66 0 1 0 C1 1.65 1 3.3 1 5 C-2.63 5 -6.26 5 -10 5 C-9.34 3.68 -8.68 2.36 -8 1 C-8 1.66 -8 2.32 -8 3 C-7.34 3 -6.68 3 -6 3 C-5.67 2.34 -5.34 1.68 -5 1 C-5 1.66 -5 2.32 -5 3 C-3.02463255 2.65213292 -3.02463255 2.65213292 -1 2 C-0.67 1.34 -0.34 0.68 0 0 Z " transform="translate(185,125)" style="fill: #66877A;"/><path d="M0 0 C0.66 0.33 1.32 0.66 2 1 C2.4140625 3.94140625 2.4140625 3.94140625 2.625 7.5625 C2.69976562 8.76003906 2.77453125 9.95757812 2.8515625 11.19140625 C2.90054688 12.11824219 2.94953125 13.04507813 3 14 C1.68 14 0.36 14 -1 14 C-0.67 9.38 -0.34 4.76 0 0 Z " transform="translate(76,115)" style="fill: #1C543E;"/><path d="M0 0 C2.0625 0.4375 2.0625 0.4375 4 1 C4 1.99 4 2.98 4 4 C4.33 4.66 4.66 5.32 5 6 C3.35 6 1.7 6 0 6 C0 6.66 0 7.32 0 8 C-1.32 8.33 -2.64 8.66 -4 9 C-3.34 7.68 -2.68 6.36 -2 5 C-1.34 5 -0.68 5 0 5 C-0.2784375 4.0409375 -0.2784375 4.0409375 -0.5625 3.0625 C-0.706875 2.381875 -0.85125 1.70125 -1 1 C-0.67 0.67 -0.34 0.34 0 0 Z " transform="translate(143,60)" style="fill: #E2DBD3;"/><path d="M0 0 C0.33 0 0.66 0 1 0 C1.33 2.97 1.66 5.94 2 9 C3.65 8.67 5.3 8.34 7 8 C7 8.99 7 9.98 7 11 C4.1875 11.25 4.1875 11.25 1 11 C-0.875 9 -0.875 9 -2 7 C-1.34 7 -0.68 7 0 7 C0 4.69 0 2.38 0 0 Z " transform="translate(142,119)" style="fill: #557F6C;"/><path d="M0 0 C0.33 0 0.66 0 1 0 C1.33 2.31 1.66 4.62 2 7 C2.99 7.33 3.98 7.66 5 8 C4.67 9.65 4.34 11.3 4 13 C3.34 13 2.68 13 2 13 C2 12.34 2 11.68 2 11 C1.34 11 0.68 11 0 11 C0 7.37 0 3.74 0 0 Z " transform="translate(121,117)" style="fill: #BFE2D2;"/><path d="M0 0 C0.66 0.33 1.32 0.66 2 1 C2 4.3 2 7.6 2 11 C1.34 11 0.68 11 0 11 C-0.33 11.66 -0.66 12.32 -1 13 C-2.12758089 9.61725734 -1.81750262 8.23221777 -1.0625 4.8125 C-0.86785156 3.91144531 -0.67320313 3.01039062 -0.47265625 2.08203125 C-0.31667969 1.39496094 -0.16070312 0.70789063 0 0 Z " transform="translate(108,117)" style="fill: #DAF7EA;"/><path d="M0 0 C-2.60542016 1.73694677 -4.58342775 2.69100448 -7.5 3.6875 C-8.2734375 3.95949219 -9.046875 4.23148437 -9.84375 4.51171875 C-12 5 -12 5 -15 4 C-15 3.34 -15 2.68 -15 2 C-9.92523206 0.73694665 -5.27203646 -0.27036084 0 0 Z " transform="translate(84,82)" style="fill: #B4CDB6;"/><path d="M0 0 C0.99 0.66 1.98 1.32 3 2 C3 3.32 3 4.64 3 6 C3.66 6.33 4.32 6.66 5 7 C2.23723823 6.47731534 -0.3260876 5.89130413 -3 5 C-3 4.01 -3 3.02 -3 2 C-2.01 1.34 -1.02 0.68 0 0 Z " transform="translate(98,20)" style="fill: #605649;"/><path d="M0 0 C0.33 0.66 0.66 1.32 1 2 C-3.455 2.495 -3.455 2.495 -8 3 C-8 3.99 -8 4.98 -8 6 C-8.66 5.67 -9.32 5.34 -10 5 C-9.25 2.5625 -9.25 2.5625 -8 0 C-5.13667606 -1.33621784 -2.92406767 -1.10912912 0 0 Z " transform="translate(36,105)" style="fill: #E4F5EC;"/><path d="M0 0 C1.9375 1.3125 1.9375 1.3125 2.6875 3.4375 C2.77 4.05625 2.8525 4.675 2.9375 5.3125 C0.6275 5.3125 -1.6825 5.3125 -4.0625 5.3125 C-4.0625 3.6625 -4.0625 2.0125 -4.0625 0.3125 C-2.0625 -0.6875 -2.0625 -0.6875 0 0 Z " transform="translate(23.0625,49.6875)" style="fill: #DCD6CF;"/><path d="M0 0 C0.33 0 0.66 0 1 0 C1 2.64 1 5.28 1 8 C-0.65 8.33 -2.3 8.66 -4 9 C-4.33 7.02 -4.66 5.04 -5 3 C-3.02 3.99 -3.02 3.99 -1 5 C-0.67 3.35 -0.34 1.7 0 0 Z " transform="translate(148,119)" style="fill: #C6ECDB;"/><path d="M0 0 C0.66 0 1.32 0 2 0 C2.33 3.3 2.66 6.6 3 10 C2.01 9.67 1.02 9.34 0 9 C-1.125 2.25 -1.125 2.25 0 0 Z " transform="translate(126,118)" style="fill: #265F46;"/><path d="M0 0 C-4.97504047 3.24900602 -7.88225104 4.49940808 -14 4 C-11.97803833 1.97803833 -10.74135514 1.32448642 -8.125 0.3125 C-7.44695313 0.04050781 -6.76890625 -0.23148437 -6.0703125 -0.51171875 C-3.68892218 -1.07336741 -2.29569809 -0.76694846 0 0 Z " transform="translate(50,100)" style="fill: #BDE0CF;"/><path d="M0 0 C0.99 0.33 1.98 0.66 3 1 C3 1.66 3 2.32 3 3 C5.475 3.99 5.475 3.99 8 5 C7.67 5.99 7.34 6.98 7 8 C5.02 7.34 3.04 6.68 1 6 C1.33 4.68 1.66 3.36 2 2 C1.34 2 0.68 2 0 2 C0 1.34 0 0.68 0 0 Z " transform="translate(151,57)" style="fill: #E5E4E2;"/><path d="M0 0 C2.31 0.33 4.62 0.66 7 1 C7 1.99 7 2.98 7 4 C6.01 3.67 5.02 3.34 4 3 C4 4.65 4 6.3 4 8 C3.34 8 2.68 8 2 8 C0.23537317 4.91190305 0 3.76687864 0 0 Z " transform="translate(109,22)" style="fill: #504638;"/><path d="M0 0 C3 0 3 0 4.6875 1.5 C5.120625 1.995 5.55375 2.49 6 3 C5.34 4.65 4.68 6.3 4 8 C2 6.25 2 6.25 0 4 C0 2.68 0 1.36 0 0 Z " transform="translate(1,108)" style="fill: #DCEAE3;"/><path d="M0 0 C0 3 0 3 -1 4 C-3.86267567 4.07325168 -6.700719 4.09238205 -9.5625 4.0625 C-10.36880859 4.05798828 -11.17511719 4.05347656 -12.00585938 4.04882812 C-14.00393756 4.03700518 -16.00197783 4.01906914 -18 4 C-18 3.67 -18 3.34 -18 3 C-13.05 3 -8.1 3 -3 3 C-3 2.34 -3 1.68 -3 1 C-2.01 0.67 -1.02 0.34 0 0 Z " transform="translate(23,104)" style="fill: #BFD8CD;"/><path d="M0 0 C2.625 1.25 2.625 1.25 5 3 C5 3.99 5 4.98 5 6 C4.01 5.67 3.02 5.34 2 5 C2 4.34 2 3.68 2 3 C0.02 3.99 0.02 3.99 -2 5 C-2 3.68 -2 2.36 -2 1 C-1.34 0.67 -0.68 0.34 0 0 Z " transform="translate(139,75)" style="fill: #E6E3DD;"/><path d="M0 0 C0 0.66 0 1.32 0 2 C-0.66 2 -1.32 2 -2 2 C-1.938125 2.94875 -1.87625 3.8975 -1.8125 4.875 C-1.874375 5.90625 -1.93625 6.9375 -2 8 C-3.485 8.99 -3.485 8.99 -5 10 C-5.66 9.01 -6.32 8.02 -7 7 C-6.01 7 -5.02 7 -4 7 C-4 5.02 -4 3.04 -4 1 C-2 0 -2 0 0 0 Z " transform="translate(86,35)" style="fill: #413018;"/><path d="M0 0 C1.32 1.65 2.64 3.3 4 5 C3.01 6.98 2.02 8.96 1 11 C0.34 10.67 -0.32 10.34 -1 10 C-1 7 -1 7 0 4 C-0.33 3.01 -0.66 2.02 -1 1 C-0.67 0.67 -0.34 0.34 0 0 Z " transform="translate(43,25)" style="fill: #F1F0E8;"/><path d="M0 0 C2.64 0.66 5.28 1.32 8 2 C8 3.98 8 5.96 8 8 C7.34 6.68 6.68 5.36 6 4 C4.35 4.33 2.7 4.66 1 5 C0.67 3.35 0.34 1.7 0 0 Z " transform="translate(125,128)" style="fill: #E5F4EF;"/><path d="M0 0 C2.0625 0.4375 2.0625 0.4375 4 1 C3.67 2.65 3.34 4.3 3 6 C1.68 6.33 0.36 6.66 -1 7 C-1.04254356 5.00045254 -1.04080783 2.99958364 -1 1 C-0.67 0.67 -0.34 0.34 0 0 Z " transform="translate(35,122)" style="fill: #416E5A;"/><path d="M0 0 C2.31 0 4.62 0 7 0 C5.79618552 2.49361571 4.54571278 4.68143083 3 7 C2.67 5.35 2.34 3.7 2 2 C1.34 2 0.68 2 0 2 C0 1.34 0 0.68 0 0 Z " transform="translate(45,115)" style="fill: #5D8875;"/><path d="M0 0 C1.98 0 3.96 0 6 0 C7 7.625 7 7.625 7 11 C6.01 11.495 6.01 11.495 5 12 C5 8.37 5 4.74 5 1 C3.35 1.66 1.7 2.32 0 3 C0 2.01 0 1.02 0 0 Z " transform="translate(108,106)" style="fill: #ADD0BF;"/><path d="M0 0 C-3.82517513 2.39073445 -7.59665524 2.55966552 -12 3 C-12 2.34 -12 1.68 -12 1 C-8.00439392 -1.83022097 -4.57262677 -0.76210446 0 0 Z " transform="translate(36,103)" style="fill: #779989;"/><path d="M0 0 C3.35620271 1.38877354 5.07298728 2.91677965 7 6 C7 6.66 7 7.32 7 8 C5.68 8 4.36 8 3 8 C2.01 5.36 1.02 2.72 0 0 Z " transform="translate(122,31)" style="fill: #877767;"/><path d="M0 0 C2.64 0.33 5.28 0.66 8 1 C6.875 2.5 6.875 2.5 5 4 C1.8125 4.1875 1.8125 4.1875 -1 4 C-0.67 2.68 -0.34 1.36 0 0 Z " transform="translate(63,126)" style="fill: #66887A;"/><path d="M0 0 C-0.9590625 0.1546875 -0.9590625 0.1546875 -1.9375 0.3125 C-2.618125 0.539375 -3.29875 0.76625 -4 1 C-4.33 1.99 -4.66 2.98 -5 4 C-7.31 4.33 -9.62 4.66 -12 5 C-10.68 4.34 -9.36 3.68 -8 3 C-8 2.34 -8 1.68 -8 1 C-5.29120665 -0.35439668 -2.99066732 -0.06501451 0 0 Z " transform="translate(92,89)" style="fill: #C5E5D5;"/><path d="M0 0 C0.66 0.33 1.32 0.66 2 1 C1.50168276 4.68754757 0.89932357 6.60490662 -2 9 C-2.6875 7.3125 -2.6875 7.3125 -3 5 C-1.5625 2.25 -1.5625 2.25 0 0 Z " transform="translate(69,51)" style="fill: #A19180;"/><path d="M0 0 C1.32 0.33 2.64 0.66 4 1 C3.01 2.98 2.02 4.96 1 7 C0.01 5.68 -0.98 4.36 -2 3 C-1.34 2.01 -0.68 1.02 0 0 Z " transform="translate(69,44)" style="fill: #D2C2B0;"/><path d="M0 0 C1.65 0 3.3 0 5 0 C5 0.66 5 1.32 5 2 C4.34 2 3.68 2 3 2 C2.34 4.31 1.68 6.62 1 9 C0.01 8.67 -0.98 8.34 -2 8 C-1.34 8 -0.68 8 0 8 C0 5.36 0 2.72 0 0 Z " transform="translate(54,115)" style="fill: #6B8A7C;"/><path d="M0 0 C0.99 0 1.98 0 3 0 C3 0.99 3 1.98 3 3 C3.66 3 4.32 3 5 3 C4.34 4.32 3.68 5.64 3 7 C1.68 5.35 0.36 3.7 -1 2 C-0.67 1.34 -0.34 0.68 0 0 Z " transform="translate(102,38)" style="fill: #493820;"/><path d="M0 0 C1.2065625 0.0309375 1.2065625 0.0309375 2.4375 0.0625 C2.4375 0.7225 2.4375 1.3825 2.4375 2.0625 C1.4475 2.5575 1.4475 2.5575 0.4375 3.0625 C0.4375 3.7225 0.4375 4.3825 0.4375 5.0625 C-0.5525 5.3925 -1.5425 5.7225 -2.5625 6.0625 C-2.94468767 4.40635343 -3.27645102 2.73792976 -3.5625 1.0625 C-2.5625 0.0625 -2.5625 0.0625 0 0 Z " transform="translate(74.5625,31.9375)" style="fill: #D6C9BB;"/><path d="M0 0 C0.33 0.66 0.66 1.32 1 2 C-2.08888522 4.05925681 -2.70935927 4.2390374 -6.1875 4.125 C-8.0746875 4.063125 -8.0746875 4.063125 -10 4 C-8 1 -8 1 -6.0546875 0.48828125 C-5.33539062 0.43027344 -4.61609375 0.37226562 -3.875 0.3125 C-2.59625 0.209375 -1.3175 0.10625 0 0 Z " transform="translate(33,70)" style="fill: #E7E2DA;"/><path d="M0 0 C0.66 1.32 1.32 2.64 2 4 C-2.75 8 -2.75 8 -5 8 C-3.62845496 5.04590299 -2.01136276 2.55991624 0 0 Z " transform="translate(71,58)" style="fill: #BFB1A0;"/><path d="M0 0 C0.99 0 1.98 0 3 0 C3.33 1.32 3.66 2.64 4 4 C2.02 4.99 2.02 4.99 0 6 C-1.125 2.25 -1.125 2.25 0 0 Z " transform="translate(16,64)" style="fill: #DAD4C9;"/><path d="M0 0 C0.66 0.33 1.32 0.66 2 1 C2 1.99 2 2.98 2 4 C2.66 4 3.32 4 4 4 C4 4.99 4 5.98 4 7 C1.03 6.505 1.03 6.505 -2 6 C-1.34 4.02 -0.68 2.04 0 0 Z " transform="translate(149,55)" style="fill: #D6D0CA;"/><path d="M0 0 C1.4540625 0.0309375 1.4540625 0.0309375 2.9375 0.0625 C0.9375 2.0625 0.9375 2.0625 -2.0625 2.0625 C-2.3925 3.0525 -2.7225 4.0425 -3.0625 5.0625 C-3.7225 5.0625 -4.3825 5.0625 -5.0625 5.0625 C-3.9375 0.08035714 -3.9375 0.08035714 0 0 Z " transform="translate(39.0625,114.9375)" style="fill: #668677;"/><path d="M0 0 C3.3 0 6.6 0 10 0 C6.66189518 1.66905241 3.53842155 2.8741386 0 4 C0 2.68 0 1.36 0 0 Z " transform="translate(175,115)" style="fill: #769489;"/><path d="M0 0 C1.3921875 0.3403125 1.3921875 0.3403125 2.8125 0.6875 C0.8125 2.6875 0.8125 2.6875 -2.8125 2.8125 C-3.92625 2.77125 -5.04 2.73 -6.1875 2.6875 C-4.14987265 -0.14253799 -3.59070275 -0.35202968 0 0 Z " transform="translate(79.1875,87.3125)" style="fill: #056639;"/><path d="M0 0 C-0.33 1.65 -0.66 3.3 -1 5 C-1.33 4.34 -1.66 3.68 -2 3 C-2.99 2.67 -3.98 2.34 -5 2 C-5 1.34 -5 0.68 -5 0 C-3 -1 -3 -1 0 0 Z " transform="translate(138,64)" style="fill: #3F2F17;"/><path d="M0 0 C1.98 0.66 3.96 1.32 6 2 C6 2.66 6 3.32 6 4 C2.7 3.67 -0.6 3.34 -4 3 C-2.68 2.67 -1.36 2.34 0 2 C0 1.34 0 0.68 0 0 Z " transform="translate(96,25)" style="fill: #EDE7DC;"/><path d="M0 0 C0.66 0.99 1.32 1.98 2 3 C1.67 3.66 1.34 4.32 1 5 C1.66 5.33 2.32 5.66 3 6 C1.35 6.33 -0.3 6.66 -2 7 C-1.42415568 4.61435923 -0.77772405 2.33317216 0 0 Z " transform="translate(182,121)" style="fill: #BCE3D2;"/><path d="M0 0 C0.66 0.66 1.32 1.32 2 2 C0.6875 4 0.6875 4 -1 6 C-1.99 6 -2.98 6 -4 6 C-3.6875 4.125 -3.6875 4.125 -3 2 C-2.01 1.34 -1.02 0.68 0 0 Z " transform="translate(60,115)" style="fill: #CBF0E0;"/><path d="M0 0 C1.32 0.99 2.64 1.98 4 3 C0.49223216 4.60355101 -2.14354879 5.22036864 -6 5 C-6 4.34 -6 3.68 -6 3 C-4.02 2.67 -2.04 2.34 0 2 C0 1.34 0 0.68 0 0 Z " transform="translate(160,112)" style="fill: #BAD5C8;"/><path d="M0 0 C1.2077558 3.62326739 0.54311128 4.64146369 -1 8 C-1.99 8 -2.98 8 -4 8 C-2.98181818 0 -2.98181818 0 0 0 Z " transform="translate(25,106)" style="fill: #D8ECE4;"/><path d="M0 0 C0 0.66 0 1.32 0 2 C-0.94875 1.979375 -1.8975 1.95875 -2.875 1.9375 C-5.90666283 1.77448174 -5.90666283 1.77448174 -8 3 C-8 2.01 -8 1.02 -8 0 C-4.94736336 -0.98120464 -3.05263664 -0.98120464 0 0 Z " transform="translate(82,91)" style="fill: #59967A;"/><path d="M0 0 C1.32 0 2.64 0 4 0 C4 0.99 4 1.98 4 3 C4.99 3.33 5.98 3.66 7 4 C5.02 4 3.04 4 1 4 C0.67 2.68 0.34 1.36 0 0 Z " transform="translate(15,81)" style="fill: #D6D0C5;"/><path d="M0 0 C1.1446875 0.3403125 1.1446875 0.3403125 2.3125 0.6875 C2.3125 1.3475 2.3125 2.0075 2.3125 2.6875 C-0.3275 3.3475 -2.9675 4.0075 -5.6875 4.6875 C-5.6875 2.6875 -5.6875 2.6875 -4.5 1 C-2.6875 -0.3125 -2.6875 -0.3125 0 0 Z " transform="translate(137.6875,60.3125)" style="fill: #52412A;"/><path d="M0 0 C0 0.66 0 1.32 0 2 C0.66 2 1.32 2 2 2 C2 2.66 2 3.32 2 4 C-0.31 4 -2.62 4 -5 4 C-5.33 3.01 -5.66 2.02 -6 1 C-3.92446352 0.4465236 -2.15634036 0 0 0 Z " transform="translate(152,51)" style="fill: #EBE5DD;"/><path d="M0 0 C4.875 4.75 4.875 4.75 6 7 C2.34683329 5.75023244 1.21934164 5.32901247 -1 2 C-0.67 1.34 -0.34 0.68 0 0 Z " transform="translate(119,29)" style="fill: #5D4D3B;"/><path d="M0 0 C0.99 0.33 1.98 0.66 3 1 C3 2.65 3 4.3 3 6 C1.68 5.34 0.36 4.68 -1 4 C-0.67 2.68 -0.34 1.36 0 0 Z " transform="translate(58,27)" style="fill: #433725;"/><path d="M0 0 C0.99 0.66 1.98 1.32 3 2 C3 2.66 3 3.32 3 4 C2.01 4 1.02 4 0 4 C-0.33 5.32 -0.66 6.64 -1 8 C-1.625 5.6875 -1.625 5.6875 -2 3 C-1.34 2.01 -0.68 1.02 0 0 Z " transform="translate(106,16)" style="fill: #B7B2A8;"/><path d="M0 0 C2.64 0 5.28 0 8 0 C8 0.33 8 0.66 8 1 C6.35 1 4.7 1 3 1 C2.34 2.32 1.68 3.64 1 5 C0.67 3.35 0.34 1.7 0 0 Z " transform="translate(129,122)" style="fill: #B9DECD;"/><path d="M0 0 C0.66 0.33 1.32 0.66 2 1 C2 2.98 2 4.96 2 7 C1.01 6.67 0.02 6.34 -1 6 C-1.042721 4.33388095 -1.04063832 2.66617115 -1 1 C-0.67 0.67 -0.34 0.34 0 0 Z " transform="translate(164,121)" style="fill: #F6F8F5;"/><path d="M0 0 C0 0.99 0 1.98 0 3 C-1.98 3.33 -3.96 3.66 -6 4 C-6 3.01 -6 2.02 -6 1 C-4 0 -4 0 0 0 Z " transform="translate(33,115)" style="fill: #618676;"/><path d="M0 0 C1 2 1 2 1 5 C2.65 5 4.3 5 6 5 C6 5.99 6 6.98 6 8 C3.69 7.34 1.38 6.68 -1 6 C-1.042721 4.33388095 -1.04063832 2.66617115 -1 1 C-0.67 0.67 -0.34 0.34 0 0 Z " transform="translate(115,108)" style="fill: #DCF5E8;"/><path d="M0 0 C1.65 0 3.3 0 5 0 C4.6875 1.9375 4.6875 1.9375 4 4 C3.01 4.33 2.02 4.66 1 5 C0.34 4.34 -0.32 3.68 -1 3 C-0.01 3 0.98 3 2 3 C2 2.34 2 1.68 2 1 C1.34 0.67 0.68 0.34 0 0 Z " transform="translate(26,98)" style="fill: #EAF6EF;"/><path d="M0 0 C2.875 -0.125 2.875 -0.125 6 0 C6.66 0.66 7.32 1.32 8 2 C5.36 2.33 2.72 2.66 0 3 C0 2.01 0 1.02 0 0 Z " transform="translate(114,89)" style="fill: #CBEDDE;"/><path d="M0 0 C1.8871875 0.061875 1.8871875 0.061875 3.8125 0.125 C2.25 1.6875 2.25 1.6875 -0.1875 3.125 C-3.9375 2.8125 -3.9375 2.8125 -7.1875 2.125 C-4.09861478 0.06574319 -3.47814073 -0.1140374 0 0 Z " transform="translate(96.1875,79.875)" style="fill: #3E7F59;"/><path d="M0 0 C0.66 0 1.32 0 2 0 C2 2.31 2 4.62 2 7 C0.4375 5.75 0.4375 5.75 -1 4 C-0.6875 1.8125 -0.6875 1.8125 0 0 Z " transform="translate(139,69)" style="fill: #F3F1EB;"/><path d="M0 0 C0.66 0.99 1.32 1.98 2 3 C0.35 4.98 -1.3 6.96 -3 9 C-3.33 8.34 -3.66 7.68 -4 7 C-3.22265625 5.2734375 -3.22265625 5.2734375 -2.0625 3.375 C-1.381875 2.26125 -0.70125 1.1475 0 0 Z " transform="translate(70,55)" style="fill: #564635;"/><path d="M0 0 C0.66 0.33 1.32 0.66 2 1 C2 1.99 2 2.98 2 4 C3.43750191 5.68798827 3.43750191 5.68798827 5 7 C4.01 7.495 4.01 7.495 3 8 C3 7.34 3 6.68 3 6 C2.0409375 5.566875 2.0409375 5.566875 1.0625 5.125 C-1 4 -1 4 -2 2 C-1.34 2 -0.68 2 0 2 C0 1.34 0 0.68 0 0 Z " transform="translate(129,50)" style="fill: #B9AB99;"/></svg>